<svg xmlns="http://www.w3.org/2000/svg" xmlns:xlink="http://www.w3.org/1999/xlink" version="1.1" x="0px" y="0px" viewBox="0 0 100 125" enable-background="new 0 0 10 10" xml:space="preserve"><path fill-rule="evenodd" clip-rule="evenodd" d="M7.471,30.977c0.342-0.197,1.002-0.566,1.435-0.262  C8.44,31.105,8.11,30.846,7.471,30.977z M9.688,30.323c-0.404-0.013-0.724,0.06-0.913,0.262C9.476,30.841,9.308,30.552,9.688,30.323  z M9.688,30.585c0.232-0.072,0.542-0.066,0.652-0.262c-0.08-0.075-0.618-0.305-0.652,0C9.846,30.351,9.769,30.469,9.688,30.585z   M16.471,28.759c-0.247,0.029-0.287-0.147-0.521-0.131c-0.068,0.193-0.193,0.329-0.261,0.522  C16.021,29.092,16.289,28.967,16.471,28.759z M22.47,30.323c0,0.088,0,0.175,0,0.262c0.084,0.317,0.61,0.02,0.652-0.131  C22.809,30.508,22.839,30.216,22.47,30.323z M33.036,64.887c0.437-0.041,0.822-0.134,1.043-0.392c-0.232,0.078-0.542-0.382-0.652,0  c0.364,0.175-0.55-0.105-0.652,0.261C32.875,64.785,33.031,64.76,33.036,64.887z M35.122,64.235c-0.56-0.015-0.96-0.268-1.304,0.13  C34.547,64.144,34.565,64.715,35.122,64.235z M34.991,53.409c-0.488,0.173-0.901-0.39-1.174,0  C34.177,53.364,34.733,53.783,34.991,53.409z M34.339,30.193c0.85-0.15,1.672-0.328,2.479-0.521  C36.182,29.546,34.824,29.741,34.339,30.193z M39.948,50.801c-0.345,0.054-1.165-0.303-1.173,0.13  C39.128,50.851,39.81,51.097,39.948,50.801z M40.73,45.453c-0.646,0.062-0.914-0.381-1.304,0.13  C39.822,45.501,40.55,45.751,40.73,45.453z M43.078,54.452c-0.709,0.184-1.353-0.379-1.826,0  C41.899,54.581,42.602,54.951,43.078,54.452z M52.601,60.452c-0.508,0.063-1.962-0.141-1.827,0.131  C51.615,60.505,52.05,60.822,52.601,60.452z M55.208,72.843c-1.424,0.048-3.224-0.824-4.435-0.131  C52.109,72.444,53.492,73.123,55.208,72.843z M54.947,61.235c-0.611-0.217-2.127-0.217-2.739,0  C53.145,61.32,53.795,61.199,54.947,61.235z M55.599,58.365c-0.306-0.075-1.001-0.428-1.042,0  C54.837,58.7,57.186,58.379,55.599,58.365z M54.557,44.671c0.129,0.143,0.71,0.488,0.912,0.131  C55.243,44.754,54.663,44.407,54.557,44.671z M56.121,38.933c-0.389,0.004-0.871-0.248-1.043,0.13  C55.602,38.904,56.032,39.407,56.121,38.933z M62.643,57.191c0.154,0.02,0.295,0.232,0.391,0c-0.146-0.028-0.202-0.145-0.26-0.261  c0.146-0.027,0.202-0.145,0.26-0.261c-0.578-0.101-0.524,0.432-0.782,0.652C62.431,57.327,62.538,57.261,62.643,57.191z   M66.947,76.886c-0.667,0.073-1.678-0.198-1.957,0.261C65.831,76.927,66.359,77.371,66.947,76.886z M67.076,68.017  c-0.187,0.191-0.099,0.414,0.262,0.391c0.244-0.03-0.074-0.213,0.131-0.26c0.182,0.01,0.498-0.028,0.261-0.131  c-0.597-0.056-1.106-0.198-1.826-0.13C66,68.707,66.499,67.854,67.076,68.017z M66.034,40.105c0.109-0.466,0.672,0.336,0.782-0.13  C66.743,39.754,65.516,39.775,66.034,40.105z M70.207,68.147c-0.279,0.036-1.391-0.101-1.043,0.131  C69.442,68.242,70.555,68.379,70.207,68.147z M70.989,75.712c-0.359,0.045-0.915-0.374-1.173,0  C70.304,75.538,70.718,76.102,70.989,75.712z M74.772,47.54c-0.529,0.06-0.601-0.502-0.913,0  C74.192,47.676,74.572,47.93,74.772,47.54z M78.425,41.148c0.339,0.097,0.249,0.621,0.651,0.652  C79.028,41.492,78.772,40.726,78.425,41.148z M81.554,42.844c0.06-0.33-0.681-0.519-0.781-0.261  C81.016,42.688,81.25,42.802,81.554,42.844z M83.771,60.452c-0.456-0.021-0.835,0.035-1.043,0.261  C83.185,60.734,83.563,60.679,83.771,60.452z M88.075,56.278C87.925,58.02,88.46,57.526,88.075,56.278L88.075,56.278z   M10.471,35.541c-1.618,0.823-1.571,3.304-1.435,5.217c-2.456,1.39-5.418,3.303-4.435,7.304c1.645,3.005,4.892,4.796,8.478,5.869  c1.13,0.338,2.563,0.166,3.26,1.305c-1.499,2.104-4.987,2.541-5.086,5.739c-0.022,0.706,0.47,2.089,1.043,2.869  c2.005,2.727,7.258,4.157,11.869,5.478c3.026,0.866,6.005,1.488,9.391,1.825c0.551,0.056,1.156-0.094,1.696,0  c2.088,0.367,4.239,1.856,6.521,2.609c2.432,0.802,4.918,1.223,6.913,2.087c1.551,0.062,2.616,0.476,4.564,0.783  c0.746,0.091,0.746-0.223,0-0.132c-5.557-1.225-11.118-2.444-15.39-4.955c4.635-0.029,7.358,0.431,12.129,0.912  c-1.676-0.735-4.063-0.274-5.608-0.912c0.917,0.244,3.36-0.503,2.739,0.261c0.339,0.077,0.47-0.054,0.392-0.392  c2.983,0.222,5.777,0.712,9,0.782c-2.219-0.441-4.464-0.227-6.261-0.913c0.596-0.154,1.349,0.209,1.435,0.131  c-0.382-0.351,1.242-0.354,0.914,0.131c0.112-0.19,0.194-0.413,0.521-0.393c0.907,0.113,1.733-0.149,2.738-0.13  c2.706,0.053,4.853,0.665,6.391,2.217c-0.153,0.021-0.37-0.021-0.391,0.131c0.217,0,0.435,0,0.651,0  c-0.423-1.129-1.968-1.272-2.348-2.087c0.54,0.085,2.349,0.382,3-0.131c-0.416,0.112-0.403-0.205-0.652-0.26  c0.449,0.604-0.533,0.205-0.651,0.26c0.235-0.687,1.368-0.035,1.564-0.521c-1.649-0.062-4.507,0.577-5.739-0.392  c2.591-0.219,4.656-0.663,6.913-1.434c1.406,0.64,3.753,0.649,5.348,1.434c-2.083,0.774-4.841,0.789-6.391,0.521  c-0.209,0.514,0.563,0.046,0.522,0.391c-0.462,0.115-0.674-0.334-0.784,0.131c1.245,0.286,2.66-0.408,4.305,0.262  c0.193-0.155,0.202-0.493,0.391-0.652c0.926,0.208,1.784-0.604,3-0.521c0,0.449-0.02,0.436,0.131,1.174  c-0.452,0.425-1.52-0.167-1.695,0c0.702,0.621,2.159-0.013,2.218,0.391c0.261-0.843-0.162-0.529-0.131-1.564  c1.562-0.917,3.522-1.435,5.348-2.087c0.463,0.511,0.304,1.474,0.912,2.087c0.147-0.514-0.393-0.907,0.131-1.044  c0.499,0.819-0.141,1.812,0.262,2.218c-0.13,0.712-1.322,1.552-0.914,1.956c0.723-0.697,0.763-1.325,1.305-2.087  c1.36,0.013,2.472-0.224,3.651-0.392c-0.013,0.778,0.387,2.962,1.175,3.391c0.163-0.922-0.863-2.081-0.261-2.217  c-0.328-0.325-0.37-0.935-0.653-1.304c0.841-0.195,2.342-1.549,1.696-1.957c-0.086,0.303-0.618,1.422-1.696,1.696  c-1.2-2.893-3.801-3.705-4.695-6.652c1.856,0.069,3.627-0.39,5.739-0.13c-0.138,0.638,0.215,2.706,0.782,3.391  c0.042-0.545-0.278-0.64,0-1.044c0.379,0.34,0.152,1.827,0.262,2.61c0.715-1.78-0.126-3.856-0.653-5.219  c0.688-0.101,1.135,0.014,1.827-0.26c-0.701-0.336-1.947,0.64-2.218-0.652c3.096-0.605,5.985-2.094,8.478-2.87  c0.164-0.698,0.592-0.477,0.913-0.651c0.327-0.178,0.8-0.813,1.305-1.174c3.323-2.383-0.123-5.942-2.087-7.826  c0.007-0.167,0.167-0.181,0.131-0.391c-0.238,0.307-0.388,0.295-0.913,0.391c0.267,0.036,0.26,0.349,0.391,0.521  c-1.329,1.063-2.788,1.995-4.695,2.479c-1.831-2.256-4.235-3.938-5.479-6.782c3.906-2.204,6.617,2.692,9.913,3.392  c-2.261-1.479-4.606-2.872-6.912-4.305c1.98-0.165,3.171-1.764,4.564-2.087c0.262,0.455-0.058-0.011-0.131,0.262  c0.716,0.197,0.996,0.829,1.435,1.304c-0.297,0.18-0.489-0.337-0.521,0c0.304,0.411,0.552,0.199,0.913,0.392  c-0.13,0-0.261,0-0.392,0c0.482,0.792,1.234,1.962,1.305,2.738c0.492,0.059,0.188-0.682,0.522-0.783  c0.055,0.344,0.055,1.413,0.391,1.044c-1.864-5.743-7.385-7.831-10.956-11.868c0.191-0.001,1.067,0.049,0.651-0.131  c-0.422-0.075-0.606,0.09-0.911,0.131c-0.168-0.403-1.103-0.719-0.914-1.044c2.266,1.039,4.839,1.77,6.652,3.261  c0.092,0.759,1.512,1.646,2.087,1.956c-0.426-2.362-5.095-4.098-7.565-4.825c-3.26-0.961-4.999-3.786-7.434-5.479  c-0.222-0.153-0.674-0.105-0.913-0.26c-0.531-0.342-0.915-0.913-1.435-1.175c-6.229-3.133-13.546-5.32-21.13-5.999  c-3.629-0.325-7.823-0.264-10.957,0.391c-3.55,0.742-6.444,2.818-10.042,3.26c-4.578,0.563-9.958,0.266-13.564,2.087  c0.323-0.169,0.541,0.384,0.651,0c-0.139,0.006-0.331-0.062-0.13-0.13c3.359-0.931,7.738-1.779,12.129-1.565  c-2.674,0.296-4.874,1.094-6.912,1.695c-3.728,1.1-7.804,0.057-11.738,1.565c1.204,0.017,3.3-0.598,4.434-0.652  c-1.064,0.528-0.558,2.17,0,2.87c-1.347,0.696-2.438,1.647-3.521,2.607c-1.895-0.004-7.875-2.153-3.783-3.781  c-0.541,0.121-1.734,0.334-1.826,1.304c-0.191,2.023,3.304,1.757,4.826,2.478c0.83,0.395-0.039,1.151-0.392,1.957  c-0.271,0.622-0.275,0.929-0.652,1.435C9.358,37.21,10.159,36.056,10.471,35.541z M14.906,32.541  c-0.417,0.452-1.001,0.738-1.565,1.043C13.765,33.139,14.242,32.747,14.906,32.541z M82.598,44.54  c0.369-0.669,1.088-0.56,1.174-1.696c-0.426,1.343-1.831,1.804-3.261,0.784c-0.067-0.499-0.364-0.768-0.521-1.175  c0.151,0.109,0.35,0.172,0.652,0.13c-0.161-0.187-0.448-0.246-0.782-0.26c0.159-0.736-0.832-0.834-0.523-1.305  c1.291,0.276,1.832,1.299,3.262,1.435c-0.118,0.474-0.385,0.08-0.782,0.13c0.115,0.719,0.966-0.103,1.044,0.653  c-0.29,0.071-0.187-0.249-0.393-0.262c-0.175,0.086-0.242,0.279-0.261,0.522c0.188-0.357,0.329-0.151,0.653,0  c0.517-0.04-0.146-0.453,0.391-0.392c-0.164-0.175-0.392-0.256-0.13-0.522c-0.034-0.271-0.574-0.034-0.653-0.26  c0.086-0.391,0.279,0.124,0.522,0c-1.354-1.213-4.661-1.165-4.825-3.131c-0.369-0.283-0.936-0.368-0.914-1.043  c0.632,0.194,0.822,0.83,1.695,0.783c0.007,0.332-0.097,0.158-0.26,0.13c0.231,0.491,0.581,0.053,1.043,0.261  c-0.675-0.369-1.098-0.989-2.087-1.043c0.253-0.349-0.553-0.51-0.262-1.305c1.152,0.325,1.963,0.994,3.001,1.435  c-0.119,0.356-0.458-0.231-0.652,0.131c1.065-0.201,1.973,1.154,2.478,1.173c-0.057,0.16-0.166,0.269-0.391,0.262  c0.676,0.541,0.959,1.475,1.565,2.087c0.514-1.135-0.855-2.435-1.956-3.261c-1.078-0.808-2.993-1.689-3.783-1.826  c-0.527-0.651-0.012-2.098-0.521-2.478c0.723-0.155,1.734,0.524,2.608,0.651c0.024,0.111-0.051,0.123-0.131,0.13  c-0.023,0.111,0.052,0.123,0.131,0.131c-0.096,0.232-0.237,0.02-0.393,0c3.081,2.03,6.242,5.045,9.262,7.564  C87.381,44.361,84.497,46.167,82.598,44.54z M79.467,42.193c-1.169-0.179-1.604-1.092-2.347-1.696c0.12,0.227-0.005,0.7,0.391,0.651  c-0.04,0.178-0.326,0.109-0.521,0.131c-0.108-0.531-0.021-0.449,0-1.043C78.24,40.591,79.391,41.008,79.467,42.193z M81.554,48.322  c1.289,0.624,1.644,2.184,2.348,3.392c0.13-0.522,0.361-0.84,0-1.435c0.361,0.083,1.272,0.829,0.783,0.913  c0.803,0.109,0.883,0.942,1.565,1.173c-0.033,0.306-0.573,0.075-0.652,0c0.133,0.347,0.215,0.742,0.652,0.783  c0.254,0.052,0.19-0.594-0.131-0.392c-0.125-0.434,0.527,0.245,0.652,0.392c-0.035,0.268-0.486,0.123-0.521,0.391  c-0.661-0.295-1.513-0.399-1.957-0.913c-2.214,0.027-1.963-1.663-3.391-2.478C81.11,49.287,81.715,48.904,81.554,48.322z   M91.728,50.67c0.855,0.161,1.855,1.264,2.348,2.218c-0.259-0.002-0.166-0.356-0.521-0.262c0.067,0.194,0.193,0.329,0.261,0.522  c0.259-0.002,0.166-0.355,0.522-0.261c0.206,0.601,1.243,1.68,0.912,1.957c-0.228-0.513-0.458-1.021-0.912-1.306  c-0.007,0.358,0.285,1.538,0.521,2.087c0.401,0.098,0.251-0.357,0.652-0.261c-0.238,2.109-1.798,2.897-3.391,3.652  c0.028-3.07-3.754-4.023-5.348-5.479c0.104,0.069,0.212,0.137,0.392,0.131C88.204,52.694,90.917,52.307,91.728,50.67z   M84.163,54.975c0.134-0.292,0.448,0.32,0.392,0.651c0.356-0.323-0.138-0.898-0.262-1.174c0.342-0.637,1.424-0.219,1.695-0.652  c1.426,0.112,0.745,1.668,1.565,2.218c0.281-0.445-0.213-0.717-0.13-1.173c0.376,0.101,0.325,0.63,0.522,0.913  c0.187-0.237-0.113-0.544,0.39-0.653c-0.123-0.086-0.634-0.122-0.651-0.652c0.957,0.43,1.609,1.358,2.217,1.435  c-0.041,0.178-0.326,0.108-0.521,0.131c1.2,0.347,1.122,1.236,1.695,2.087c-0.131,0-0.262,0-0.392,0  c0.579,0.029,0.514,0.704,0.912,0.913c0.241-0.019,0.081-0.441,0.261-0.521c0.459,0.036-0.326,0.485,0.131,0.521  c-2.361,1.725-5.617,2.557-8.738,3.521c-0.653-1.26-1.783-2.043-2.478-3.261c1.957-0.085,3.295-0.791,3.912-2.218  c-0.886,1.175-2.614,2.146-4.304,2.088c0.616-0.801,1.708-0.964,1.435-2.349c-0.361,0.944-0.685,1.925-1.956,1.957  c-0.044-0.435-0.533-0.424-0.523-0.913c1.286-0.246,1.641-2.085,2.479-2.348c0.017-0.234-0.16-0.275-0.131-0.521  c0.815-0.004,1.155-0.602,1.826-0.391c0.133,0.562,0.466,0.925,0.782,1.303C84.503,55.561,84.198,55.328,84.163,54.975z   M83.511,53.8c-0.232,0.551-0.828,0.739-1.565,0.784C82.332,54.375,82.789,53.997,83.511,53.8z M81.554,54.322  c-0.224-0.801,0-1.328,0-2.218c0.29,0.102,0.509,0.274,0.913,0.261c0.151,0.414,0.07,1.063,0.653,1.044  C82.827,53.943,82.384,54.325,81.554,54.322z M80.642,68.93c-0.022,0.282,0.462,0.06,0.652,0.131  c-0.029,0.491,0.312,0.781,0.782,1.305c-0.353,0.874-2.141,0.833-3.651,0.912c0.194-1.717-0.65-2.394-1.045-3.521  c0.572-0.255,0.973-0.681,1.175-1.304C79.357,67.008,80.918,68.16,80.642,68.93z M65.903,69.061  c0.243-0.379,1.768,0.117,2.348,0.261C67.813,69.588,66.836,69.053,65.903,69.061z M56.252,70.104  c-0.195-0.465-0.653,0.141-0.653-0.522c3.021,0.027,5.499-1.056,8.218-0.912c-1.813,1.044-4.631,1.366-7.304,1.305  c-2.497,1.031-6.678,0.528-9.913,1.173c-0.038-0.21,0.123-0.224,0.13-0.391c-0.515-0.168-0.315,0.38-0.651,0.391  c-0.441-0.191-0.379-0.391-0.784-0.391c-4.592,0.213-11.875,0.31-14.999-2.869c3.058,0.819,6.79,1.332,9.651,1.956  c-0.052-0.012,0.192-0.59,0.521-0.262c-0.001-0.001-0.154,0.26-0.13,0.262c0.154,0.017,0.377-0.258,0.521-0.262  c1.579-0.035,3.695,0.251,5.74,0.262c1.182,0.006,2.34,0.001,3.521,0C52.219,69.842,54.313,69.658,56.252,70.104z M57.816,70.626  c-1.09,0.461-2.388-0.089-3.652,0.261C55.011,70.386,56.611,70.273,57.816,70.626z M9.167,41.279  c0.076,1.315,0.388,2.396,0.913,3.261c-0.566,0.948-1.515,1.408-1.565,2.608c-0.158,3.731,5.77,4.009,6.652,7.043  c-3.956-1.255-9.456-2.881-10.304-6.782C4.157,44.166,6.929,42.183,9.167,41.279z M13.341,47.278  c0.673,1.908,0.05,2.876,0.521,4.696c-1.764-1.039-5.417-2.44-4.826-5.348c0.085-0.42,0.828-1.626,1.174-1.695  C10.873,44.8,12.247,47.271,13.341,47.278z M9.559,41.148c0.711,0.725,1.008,1.861,1.695,2.609  c-0.172,0.263-0.428,0.441-0.783,0.521C9.839,43.563,9.631,42.424,9.559,41.148z M9.949,40.236  c-0.676-1.814,0.577-3.939,1.565-4.957C11.685,36.81,9.599,37.729,9.949,40.236z M13.08,42.844c-0.243,0.366-0.668,0.55-1.173,0.653  c-1.42-0.756-2.243-3.828-0.131-3.652C13.375,39.979,12.383,41.874,13.08,42.844z M10.471,40.105  c-0.33-0.725,0.048-1.861,0.391-2.347c0.31,0.56,0.46,1.278,0.783,1.824C11.195,39.698,10.742,39.811,10.471,40.105z M11.385,44.148  c1.018,0.547,1.696,1.435,2.086,2.609C12.522,46.789,9.917,44.923,11.385,44.148z M13.732,35.41  c0.369-0.301,0.543-0.214,1.174-0.392c0.181,0.081,0.02,0.503,0.261,0.522C15.099,35.6,13.993,35.591,13.732,35.41z M15.819,37.628  c-1.082,0.656-2.018,1.46-3.521,1.695c-0.749-0.325-0.847-1.438-0.913-2.087c0.125-0.022,0.265,0.03,0.26,0.131  C11.69,36.286,15.824,33.875,15.819,37.628z M11.775,36.454c-0.429-0.353,0.357-0.591,0.261-1.044  c0.505,0.088,0.464,0.001,0.783,0.131C12.639,36.013,11.994,36.021,11.775,36.454z M15.427,56.409  c0.109,1.682-1.542,2.791-1.434,4.826c0.125,2.379,1.706,4.141,3.521,5.347c-2.534-0.765-7.05-3.28-5.478-7.042  C12.641,58.093,14.206,57.495,15.427,56.409z M11.775,35.019c0.217-0.261,0.351-0.605,0.783-0.651  C12.341,34.629,12.208,34.974,11.775,35.019z M12.036,44.148c0.519,0.091,0.644,0.574,1.043,0.783  C12.937,45.443,12.302,44.366,12.036,44.148z M12.297,43.889c0.018-0.46,0.585-0.373,0.913-0.522c0.137,0.493,0.339,0.634,0,1.043  C12.721,44.421,12.731,43.932,12.297,43.889z M12.428,39.714c0.252-0.269,0.794-0.248,1.173-0.391  c-0.052,0.339-0.389,0.394-0.391,0.782C12.706,40.219,12.747,39.787,12.428,39.714z M12.428,35.279  c0.386-1.004,1.145-1.637,2.347-1.825c-0.084,0.639-0.022,0.612,0,1.305C13.756,34.921,13.336,35.658,12.428,35.279z M13.21,40.758  c0.405,0.203,0.831,0.387,1.174,0.652c-0.443,0.383-0.155,1.497-1.043,1.434C13.182,42.265,13.199,41.508,13.21,40.758z   M13.341,40.497c0.334-1.229,1.417-1.714,2.87-1.826c0.226,1.063-1.039,1.618-1.565,2.348  C14.102,40.953,13.884,40.563,13.341,40.497z M13.732,47.54c0.223,0.167,0.513,0.27,0.522,0.653  c-0.127,0.002-0.101,0.158-0.131,0.26C13.862,48.279,13.833,47.874,13.732,47.54z M14.123,49.235  c0.813,0.361,1.434,0.914,2.348,1.174c-0.303,0.83-0.08,2.014,0.131,2.739C14.606,52.93,13.611,51.215,14.123,49.235z   M13.993,46.627c0.436-0.001,0.345,0.524,0.652,0.651C14.353,47.647,13.841,47.135,13.993,46.627z M14.514,48.453  c0.685,0.49,2.165,0.731,2.087,1.565C15.694,49.778,14.377,49.31,14.514,48.453z M16.21,42.323  c-0.431,0.955-0.539,1.669-0.783,2.608C14.006,44.278,14.194,42.14,16.21,42.323z M20.253,29.15  c-1.439,0.933-3.58,1.646-5.086,2.869C12.123,29.235,18.217,29.119,20.253,29.15z M15.037,58.757  c0.566,6.651,6.205,8.229,11.216,10.435C20.585,68.58,12.936,65.796,15.037,58.757z M14.514,46.235  c0.101-0.481,0.885-0.114,0.913,0.262C15.096,46.813,14.792,46.366,14.514,46.235z M14.514,42.323  c0.056-0.249,0.373-0.236,0.261-0.652c0.369-0.108,0.339,0.184,0.652,0.13C15.115,41.967,15.043,42.373,14.514,42.323z   M14.775,52.888c0.639,0.044,2.479,0.463,2.087,1.564C15.634,54.464,15.364,53.517,14.775,52.888z M15.037,38.541  c0.25-0.271,0.5-0.544,0.913-0.652C16.092,38.554,15.526,38.509,15.037,38.541z M15.167,41.41c0.411-0.525,1.098-1.391,1.956-1.043  C16.801,40.981,16.02,41.752,15.167,41.41z M15.819,33.063c0.354,0.516-0.128,1.122-0.392,1.436  C14.949,34.296,15.026,32.816,15.819,33.063z M15.297,47.148c0.384,0.269,0.715,0.59,1.174,0.783  C16.122,48.144,15.107,47.908,15.297,47.148z M15.297,34.759c0.409,0.069,0.471,0.486,0.522,0.913  C15.455,35.557,15.386,35.147,15.297,34.759z M15.558,58.234c1.042-1.665,3.141-1.991,4.695-0.651  c-1.996,2.62,0.473,5.188,3.522,5.087c0.315,1.813,1.415,2.845,2.739,3.651c-0.302,0.308-1.229-0.011-1.565,0.261  c-0.684,0.496-0.553,0.748-0.261,1.565C20.244,66.285,15.439,64.242,15.558,58.234z M15.558,47.019  c-0.036-0.211,0.124-0.225,0.131-0.392c0.933,0.371,1.626,0.981,2.217,1.695C17.061,47.95,16.3,47.494,15.558,47.019z   M16.993,31.367c0.078-0.316,1.248-0.662,1.695-1.044c0.249,0.386-0.851,0.537-1.174,0.783c0.238,0.589,0.85-0.132,1.305-0.13  c-0.815,0.691-2.058,1.554-3.13,1.564c0.497-0.502,1.242-0.758,1.956-1.043C17.554,31.089,17.297,31.327,16.993,31.367z   M15.819,57.322c0.117-0.753,0.42-1.318,0.913-1.696c0.358,0.25,0.969,0.249,1.043,0.783C16.924,56.515,16.525,57.072,15.819,57.322  z M15.819,40.236c0.213-0.256,0.51-0.86,0.913-0.522C16.713,40.175,16.146,40.086,15.819,40.236z M16.08,44.54  c-0.091-0.792,0.023-1.753,0.782-2.217c0.13,0.586,0.76,1,0.521,1.565C16.631,44.114,16.945,44.228,16.08,44.54z M16.08,48.453  c0.298-0.29,0.793,0.329,1.435,0.131C17.349,49.591,16.398,48.785,16.08,48.453z M16.08,44.802c0.628-0.198,1.067-0.585,1.696-0.783  c0.046,0.171,0.229,0.205,0.261,0.391c-0.436,0.564-1.076,0.924-1.826,1.174C16.061,45.43,16.062,45.123,16.08,44.802z   M16.08,34.105c0.034-0.402,0.538-0.728,0.913-0.391C16.874,34.03,16.469,34.06,16.08,34.105z M16.34,38.02  c-0.055-0.272,0.09-0.347,0.131-0.522c0.502,0.02,0.75,0.293,0.913,0.652C16.773,38.1,16.642,38.379,16.34,38.02z M18.427,36.193  c-0.196,0.369-0.676,0.454-1.174,0.521c-0.314-0.12-0.532-0.337-0.652-0.652C17.313,36.004,17.673,36.295,18.427,36.193z   M21.558,35.149c-1.501,0.896-3.836,1.09-5.087,0.652C16.575,32.746,19.885,34.917,21.558,35.149z M18.427,33.715  c1.978-0.501,6.137-1.271,9.13-1.565c-0.755,0.924-2.2,1.123-3.522,1.826c-0.659,0.352-1.236,0.988-1.695,1.043  C21.045,35.178,19.496,34.376,18.427,33.715z M31.6,32.02c-0.431-0.221-1.371-0.183-1.695-0.131  c0.548-0.626,1.559-0.788,2.478-1.043c0.443,0.165,0.602,0.615,0.783,1.043c-0.595,0.065-0.739-0.227-1.173,0  c-0.018,0.233,0.159,0.275,0.13,0.522c-0.05-0.151-0.633-0.151-0.261,0c-0.369,0.291-1.145-0.241-1.305,0.261  c1.554,0.252,3.446-0.991,4.305,0.521c-2.468,0.414-5.552,0.326-8.347,0.912c1.05-0.644,2.56-0.83,3.912-1.172  c-0.085-0.176-0.279-0.244-0.521-0.262c0.185,0.169-1.046,0.742-1.044,0.262c-1.524,0.735-3.266,1.253-5.086,1.694  C26.023,33.311,28.157,31.788,31.6,32.02z M16.602,45.976c0.441-0.516,1.094-0.82,1.695-1.174c0.439,0.348,0.466,0.688,1.043,0.651  c-0.038,0.614-0.381,0.924-0.261,1.695C18.004,47.006,17.474,46.32,16.602,45.976z M16.732,33.193  c0.315-0.664,1.345-1.232,2.087-1.044c-0.568,0.432-1.037,0.964-1.696,1.305C17.028,33.332,16.886,33.256,16.732,33.193z   M16.993,50.67c0.654,0.129,1.152,0.414,1.826,0.522c-0.52,0.479-0.489,1.512-1.043,1.956C16.789,52.736,16.855,51.653,16.993,50.67  z M16.862,39.323c0.304-0.392,0.625-0.767,1.305-0.782C17.963,38.985,17.422,40.055,16.862,39.323z M17.123,50.409  c-0.037-0.21,0.123-0.225,0.13-0.391c0.787,0.082,1.442,0.297,1.826,0.782C18.454,51.115,17.804,50.46,17.123,50.409z   M17.383,55.235c0.636-0.069,0.611,0.52,1.044,0.651C18.082,56.182,17.49,55.613,17.383,55.235z M17.383,42.193  c0.005-0.432,0.371-0.5,0.783-0.522c0.237,0.458,0.679,0.713,1.043,1.043C18.739,42.919,17.956,42.319,17.383,42.193z   M17.514,54.191c0.04-0.177,0.327-0.107,0.522-0.13c0.167,0.326-0.067,0.408,0.13,0.522C17.654,54.808,18.047,54.032,17.514,54.191z   M17.514,42.583c0.236,0.243,0.659,0.299,1.043,0.392c-0.03,0.405-0.462,0.407-0.782,0.522  C17.789,43.092,17.365,43.124,17.514,42.583z M18.036,48.714c0.557,0.356,1.257,0.568,1.826,0.913  c-0.077,0.271-0.274,0.421-0.392,0.652C18.543,50.189,17.055,49.53,18.036,48.714z M17.645,40.236  c0.106-0.72,1.033-0.619,1.565-0.913C19.131,39.553,18.266,40.115,17.645,40.236z M18.688,37.759  c-0.468-0.185-0.93-0.375-1.043-0.914c1.303-0.349,2.483-0.82,3.652-1.304C20.917,36.249,19.465,37.013,18.688,37.759z   M22.862,30.193c0.325,0.589,1.779-0.069,1.696-0.261c0.192-0.078,1.56-0.08,1.435-0.392c0.329-0.256,0.423,0.063,1.043,0  c0.146-0.159,0.113-0.268-0.13-0.261c1.272-0.293,3.796-0.585,5.087-0.392c0,0.219,0,0.435,0,0.652  c-0.886,0.121-1.585,0.175-2.218,0.262c0.263,0.445,1.516-0.052,2.218,0c0.067,0.192,0.192,0.329,0.26,0.521  c-3.707,2.463-10.001,1.622-14.608,3.261c2.536-2.918,7.704-2.724,12.13-3.521c-2.232-0.544-5.8,1.112-7.956,0.651  c-0.479,0.317-1.804,0.837-3.391,1.044c2.318-1.463,4.867-2.697,8.478-2.87C25.088,29.689,24.719,29.87,22.862,30.193z   M17.906,40.888c0.396-0.861,2.276-1.643,2.347,0C19.268,40.953,18.696,41.547,17.906,40.888z M18.036,43.889  c0.479-0.355,1.357-0.922,1.957-0.392c-0.449,0.334-0.971,0.594-1.565,0.782C18.354,44.092,18.224,43.961,18.036,43.889z   M18.167,39.454c-0.379-0.225,0.771-1.171,0.783-0.262C18.603,39.195,18.181,39.121,18.167,39.454z M19.993,53.539  c0.424,0.638,0.93-0.042,1.043-0.261c0.201,0.069,0.008,0.137-0.13,0.131c1.122-0.184,1.829,0.757,2.739,1.175  c-1.07,1.004-2.941-0.052-4.043-0.262c-0.117-0.421,0.425-0.184,0.521-0.392c-0.294-0.548-0.977,0.503-1.695,0  c-0.199-1.169,0.742-1.708,1.565-2.217c0.481,0.432,0.855,0.971,1.304,1.435C20.616,53.021,20.502,53.823,19.993,53.539z   M18.819,52.235c-0.274-0.198,0.138-0.811,0.521-0.782C19.709,51.86,18.901,51.881,18.819,52.235z M18.688,41.801  c0.535-0.825,2.366-0.786,3-0.13C20.779,42.443,19.514,42.845,18.688,41.801z M18.819,44.671c0.138-0.602,0.871-0.607,1.434-0.782  c-0.289,0.318-0.512,0.704-0.652,1.174C19.398,44.873,19.093,44.787,18.819,44.671z M19.08,55.365c0.208-0.365,0.587,0.184,1.043,0  C19.862,55.67,19.309,55.686,19.08,55.365z M19.601,54.714c0.253-0.202,0.979,0.232,1.304,0.391  C21.39,55.422,19.893,54.867,19.601,54.714z M19.601,46.497c0.002-0.39-0.012-0.795,0.392-0.783  C20.147,45.885,20.054,46.542,19.601,46.497z M20.515,57.975c2.17,0.22,3.375,1.406,5.347,1.825  c-0.49,1.032-2.009,1.034-2.086,2.479C21.057,62.115,18.859,60.368,20.515,57.975z M19.862,56.148  c0.163-0.732,1.541-0.323,1.956-0.131c-0.181,0.298-0.451,0.505-0.652,0.782C20.47,56.845,20.386,56.275,19.862,56.148z   M19.862,45.323c0.259-0.698,0.808-1.897,1.695-1.175c-0.32,0.507-0.813,0.84-1.174,1.305C20.15,45.471,20.109,45.294,19.862,45.323  z M19.993,38.541c-0.021-0.324,0.205-0.404,0.26-0.652c0.894,0.024,1.482-0.258,2.348-0.261  C21.806,38.049,21.149,38.684,19.993,38.541z M22.34,40.236c-0.609,0.797-2.49,0.233-2.087-0.653  C21.102,39.648,21.507,40.156,22.34,40.236z M20.253,47.278c1.164-0.641,2.096-0.652,3.392-0.13  c-0.353,0.691-1.389,0.699-1.826,1.305C21.299,48.06,20.231,48.214,20.253,47.278z M21.036,46.627  c-0.384,0.04-0.025,0.404-0.783,0.262c0.02-0.484,0.613-0.858,1.043-0.522c-0.074,0.121-0.362,0.197-0.13,0.261  C21.142,46.775,21.035,46.699,21.036,46.627z M20.253,42.975c0.208-0.487,1.034-0.357,1.305-0.781  C21.708,42.571,20.729,43.552,20.253,42.975z M20.384,51.453c0.833-0.644,1.981,0.496,2.869,0.651  C22.354,52.35,21.322,51.602,20.384,51.453z M20.515,37.628c0.31-1.037,1.577-1.117,2.999-1.044  c-0.097-0.294-0.731-0.051-1.043-0.13c1.193-0.993,2.833-0.355,4.304,0c-0.794,0.51-1.702,0.041-3,0.13  c0.207,0.272,0.913,0.045,1.174,0.261C23.661,37.297,21.846,37.221,20.515,37.628z M20.645,50.148  c-0.112-0.447,0.846-0.074,0.783,0.261c-0.152-0.021-0.232,0.029-0.261,0.13C20.915,50.486,21.063,50.034,20.645,50.148z   M20.645,45.714c0.399-0.427,0.657-0.995,1.174-1.305c0.545-0.11,0.616,0.254,1.043,0.262C22.091,44.986,21.71,45.693,20.645,45.714  z M20.905,39.454c0.253-0.308,1.582,0.479,2.217,0.651C22.493,40.299,21.645,39.586,20.905,39.454z M20.905,52.235  c0.352-0.567,1.259,0.213,1.827,0.261c-0.016,0.229-1.216,0.277-0.522,0.392C21.736,53.226,21.416,52.295,20.905,52.235z   M21.296,46.105c0.582-0.864,1.758-1.43,3-0.913c-0.021,0.151,0.028,0.231,0.13,0.261c-0.111,0.383-0.329-0.17-0.652,0  c0.418,0.248-0.502,0.352-0.652,0.392C22.629,45.976,21.982,46.274,21.296,46.105z M21.296,43.497  c0.585-0.502,1.432-0.742,2.348-0.914C23.184,43.177,22.296,43.856,21.296,43.497z M21.296,41.148  c0.439-0.546,1.703-0.565,2.479-0.391c-0.323,0.503-1.163,0.49-1.565,0.913C21.878,41.525,21.574,41.351,21.296,41.148z   M28.34,59.018c0.021,0.152,0.237,0.11,0.391,0.131c-0.132,0.367-0.553-0.037-0.783,0c0.004,0.127,0.16,0.101,0.261,0.13  c-1.928,0.871-4.735-1.119-6.782-2.087c0.288-0.726,0.818-1.11,2.086-0.782c2.16,0.557,6.031,1.585,8.217,1.825  c-0.402,0.294-1.142,0.25-1.696,0.392C30.61,58.968,28.88,58.711,28.34,59.018z M21.427,39.192c0.046-0.171,0.229-0.204,0.261-0.391  c1.496-0.459,3.653-0.765,5.738-1.043c1.298-0.175,2.792-0.657,3.782,0.13C28.28,38.848,24.587,41.131,21.427,39.192z M21.558,50.67  c0.41-0.401,0.902,0.222,1.304,0.261C22.405,51.379,22.039,50.631,21.558,50.67z M21.558,49.627c0.197-0.395,0.572,0.107,0.913,0  c-0.111,0.193-0.328,0.28-0.652,0.261C21.867,49.666,21.717,49.642,21.558,49.627z M22.079,36.063  c0.094-0.427,0.534-0.51,1.043-0.521C23.003,35.943,22.513,35.975,22.079,36.063z M22.601,52.888c0.025-0.148,0.131-0.073,0.131,0  c0.542,0.127,1.262-0.506,1.303,0.261c0.668-0.305,0.704,0.205,1.436,0.13c-0.256,0.614-1.081,0.658-1.436,1.174  c-0.669-0.329-1.227-0.772-1.825-1.174C22.214,53.091,23.03,53.08,22.601,52.888z M22.34,50.279  c0.946-1.055,2.536,0.211,4.043,0.391c0.071,0.19-0.152,0.674,0.131,0.652C24.943,51.675,23.664,50.608,22.34,50.279z   M24.949,48.584c-0.628,0.627-1.192,0.556-2.479,0.13c0.416-0.541,1.459-0.454,1.957-0.914c0.308,0.271,1.814-0.485,1.695,0.522  c-0.369-0.107-0.337,0.185-0.652,0.131c0.11,0.193,0.328,0.28,0.652,0.261c-0.294,0.282,0.108,0.445,0,0.913  c-0.534,0.234-1.073-0.201-1.695-0.261c0.587-0.378,0.389-0.759,1.173-0.522C25.582,48.56,25.272,48.563,24.949,48.584z   M22.47,46.497c0.396-0.519,1.361-0.467,1.957-0.783c0.324,0.198,0.596,0.447,0.651,0.913C24.317,47.231,23.287,46.854,22.47,46.497  z M24.166,43.236c0.183-0.047,0.011-0.23-0.131-0.262c0.189-0.305,0.777,0.083,1.043,0.131c-0.316,0.466-0.755,0.811-1.174,1.174  c-0.489-0.119-0.921-0.295-1.435-0.391c0.361-0.378,0.908-0.57,1.305-0.914C24.064,42.903,23.96,43.224,24.166,43.236z   M22.732,51.453c-0.156-0.178,1.377,0.057,1.695,0.261c0.313,0.236-0.754-0.025-0.261,0.521c-0.554-0.086-0.096-0.374-0.521-0.521  C23.535,52.228,23.152,51.548,22.732,51.453z M22.732,56.018c1.09-0.337,3.139,0.471,4.173,1.043  C25.406,56.82,24.131,56.358,22.732,56.018z M22.732,28.628c0.371-0.097,0.977-0.391,1.173-0.261  C23.77,28.701,23.056,28.889,22.732,28.628z M22.992,42.063c0.448-0.979,1.904-0.995,3-0.652  C24.976,41.785,24.063,42.385,22.992,42.063z M23.383,55.496c0.191-0.657,1.408-0.359,1.565,0.13  C24.558,55.453,23.951,55.494,23.383,55.496z M23.514,35.41c1.361-0.983,3.548-1.153,5.87-1.435c2.088-0.253,3.876-0.506,5.999-0.13  c-0.822,0.813-2.37,0.445-4.043,0.521c-2.631,0.119-5.397,0.594-7.304,1.174C23.802,35.557,23.761,35.382,23.514,35.41z   M23.645,47.8c0.102-0.305,0.631-0.526,0.913-0.26C24.403,47.776,23.877,47.643,23.645,47.8z M24.035,28.367  c0.087-0.306,0.336-0.319,0.914-0.391C24.938,28.401,24.357,28.255,24.035,28.367z M24.166,62.278c0.025-0.148,0.131-0.073,0.131,0  c0.076-1.358,2.095-2.647,3.782-1.695c-0.057,0.16-0.167,0.268-0.391,0.26c1.993,0.015,4.444,1.574,6.782,2.088  c-2.389,0.454-5.836-0.234-8.478-0.392c0.288-0.606,1.693-0.706,1.435-1.435C26.925,61.569,25.519,63.043,24.166,62.278z   M24.297,62.8c0.261,0,0.521,0,0.782,0c-0.108,0.326-0.356,0.512-0.391,0.913C24.384,63.581,24.268,63.264,24.297,62.8z   M24.427,54.714c0.654-1.221,2.341-1.342,3.521-0.522C27.189,54.779,25.487,54.427,24.427,54.714z M24.558,42.714  c0.695-0.634,1.983-1.138,3.26-0.782C26.76,42.408,26.287,43.152,24.558,42.714z M24.688,55.887  c0.667-0.271,1.664,0.248,2.217,0.522C26.417,56.503,25.361,56.043,24.688,55.887z M24.688,47.278  c0.072-0.499,0.846-0.439,1.043-0.13C25.485,47.584,25.205,47.23,24.688,47.278z M24.688,44.54c0.245-0.842,1.253-0.92,2.348-0.912  c0.291,0.329-0.285,0.582-0.261,1.043C25.962,45.063,25.438,44.792,24.688,44.54z M24.818,52.235  c0.671,0.112,1.396,0.171,1.957,0.391C26.508,53.33,24.838,52.978,24.818,52.235z M24.818,35.802  c3.256-1.002,5.662-1.266,9.261-1.043C31.956,36.361,27.589,36.655,24.818,35.802z M25.079,66.843c3.099-0.498,4.702,1.533,6.261,3  C29.079,69.074,24.757,69.374,25.079,66.843z M25.471,62.931c3.589,0.05,7.044,0.362,10.304,0.651  c-0.255,0.267-0.655,0.39-1.174,0.392c0.341,0.424,1.677,0.158,1.564-0.13c3.845,0.444,8.178,2.073,12.391,2.608  c0.699,0.088,1.421-0.032,2.087,0.13c2.377,0.579,4.219,2.119,6.652,2.479c-2.85,1.011-6.244-0.348-8.739-0.521  c1.132,0.649,3.046,0.52,4.436,0.912c-7.291,0.721-16.465,0.132-22.825-1.956c0.355-1.085,1.973-0.107,3.13-0.391  c-0.016,0.288-0.553,0.055-0.782,0.13c0.509,0.439,0.695,0.031,1.173-0.13c5.01,0.415,9.493,1.04,14.608,1.564  c-5.153-1.053-11.541-1.424-17.608-2.087c0.465-0.839,1.389-1.219,2.348-1.564c-0.849-0.475-1.63,0.578-3,1.564  C27.505,66.804,24.148,65.259,25.471,62.931z M49.86,66.19c-3.689-0.018-7.877-1.318-11.086-2.217  C41.969,64.172,46.554,65.235,49.86,66.19z M24.949,45.714c0.378-0.369,0.999,0.126,1.435,0.131  c-0.205,0.316-0.555,0.488-1.043,0.521C25.325,46.032,25.101,45.909,24.949,45.714z M25.079,55.104  c3.752-1.802,5.114,2.043,7.826,2.609c-2.114,0.113-4.271-0.859-6-1.565c0.029-0.406,0.649-0.221,1.043-0.262  C27.313,55.438,25.672,55.896,25.079,55.104z M25.731,46.758c0.02-0.285,0.329-0.28,0.652-0.261  C26.352,46.825,25.999,47.037,25.731,46.758z M25.861,40.888c0.896-0.669,2.399-0.73,3.522-1.174  C29.263,40.669,27.176,41.473,25.861,40.888z M25.992,37.628c0.797-0.554,2.025-0.437,3-0.521  C28.078,37.632,27.161,37.355,25.992,37.628z M26.253,43.236c-0.32-0.5,1.052-0.424,1.304-0.783  C27.809,42.884,26.621,42.991,26.253,43.236z M26.514,49.758c0.035-0.444-0.102-1.058,0.13-1.305c1.366,0.243,2.089,1.129,3,1.826  c-1.01,0.39-1.8,0.044-2.87-0.131c0.529-0.349,1.288,0.186,2.086,0C28.176,49.922,27.231,49.953,26.514,49.758z M26.514,28.628  c1.602-0.593,4.117-1.139,5.738-0.913C30.618,28.371,28.558,28.742,26.514,28.628z M26.644,47.54  c-0.005-0.194,0.775-0.189,0.13-0.262c1.419-0.062,2.229-0.246,4.044-0.26c0.445-0.104,0.745,0.194,0.13,0.13  C29.521,47.271,27.761,48.299,26.644,47.54z M26.644,47.019c-0.013-0.404,0.16-0.623,0.261-0.913c1.143,0.031,2.001,0.347,3,0.521  C28.896,46.836,27.747,46.903,26.644,47.019z M26.774,50.801c0.479,0.087,0.992,0.139,1.435,0.261  c-0.181,0.386-0.83,0.301-1.304,0.392C27.013,51.084,26.721,51.114,26.774,50.801z M27.036,45.323  c0.782-0.74,2.229-0.814,3.652-0.914C29.521,44.765,28.465,45.632,27.036,45.323z M27.036,27.977  c0.876-0.819,2.349-0.813,3.652-0.914C29.916,27.813,28.073,27.491,27.036,27.977z M27.688,43.628c0.558-1.807,4.313-1.168,4.826,0  C30.842,43.983,28.907,44.068,27.688,43.628z M29.123,44.148c-0.513,0.227-1.229,0.25-1.826,0.392  c-0.095-0.398,0.225-0.384,0.13-0.782C28.103,43.777,28.481,44.094,29.123,44.148z M27.557,69.451  c2.299,0.092,4.319,0.927,6.521,1.044C31.81,70.578,29.337,70.01,27.557,69.451z M27.557,39.583  c0.839-0.377,1.746-0.688,2.869-0.781C29.79,39.382,28.72,39.529,27.557,39.583z M31.209,58.626  c-0.518,0.566,1.582-0.16,2.087,0.131c-0.427,0.225-0.868,0.437-1.435,0.521c0.351,0.316,1.327-0.085,1.565-0.261  c3.805,0.816,8.315,2.021,12.26,3.131c-0.86-0.011-1.801,0.061-2.478-0.132c-0.314,0.57-1.233,0.296-2.086,0.393  c-0.981,0.11-1.971,0.62-2.739,0.651c-2.825,0.114-6.371-2.038-9-2.348c4.505,0.494,10.013,1.343,13.434,1.436  c-4.176-0.58-8.455-0.89-12.651-1.696c-0.072-0.289,0.249-0.186,0.26-0.391c-0.46-0.039-1.692,0.32-2.738-0.262  C28.843,59.098,30.316,59.186,31.209,58.626z M27.688,53.148c0.127-0.177,0.439-0.17,0.521-0.392  c2.021,0.032,2.303,1.17,3.913,1.435C30.567,54.441,28.393,54.184,27.688,53.148z M27.818,48.453  c0.993-0.15,3.043,0.274,4.174,0.782c-0.925-0.055-1.3,0.44-1.957,0.652C29.184,49.522,28.519,48.971,27.818,48.453z M28.34,48.062  c1.975-0.605,4.257-0.961,6.782,0.392C32.999,49.197,30.455,48.443,28.34,48.062z M28.34,45.714c1.809-1.173,3.597-1.1,5.869-0.782  c-0.676-0.237-1.077-0.307-2.087-0.392c2.264-0.887,4.039,1.674,6.391,1.957C35.172,46.767,32.051,46.841,28.34,45.714z   M28.471,52.365c0.118-0.272,0.384-0.396,0.782-0.391c0.052,0.339,0.389,0.394,0.391,0.782C29.25,52.629,28.867,52.49,28.471,52.365  z M28.601,66.974c0.181-0.298,0.908-0.049,1.304-0.131C29.86,67.798,29.213,66.926,28.601,66.974z M28.731,41.671  c-0.28-0.473,0.885-0.132,0.392-0.392c0.823,0.153,1.997-0.69,2.739,0.131C30.65,41.262,29.68,41.985,28.731,41.671z M28.992,54.714  c2.638,0.232,5.835,2.045,8.739,2.869C34.333,59.019,30.923,56.699,28.992,54.714z M29.123,41.019  c0.68-0.754,2.059-0.811,3.26-1.043C31.905,41.214,30.569,40.787,29.123,41.019z M31.209,53.278c-0.02-0.236,1.73,0.132,1.957,0.131  c-1.105-0.771-3.019,0.068-3.391-1.435c2.585-0.095,5.279,0.563,7.173,1.564c-0.333,0.294-1.325-0.206-1.435,0.131  c1.36,0.182,2.901,0.26,4.304,0.914C36.641,54.893,33.991,53.981,31.209,53.278z M29.774,40.236c0.292-0.858,0.97-0.52,1.957-0.653  C31.08,40.06,30.598,40.133,29.774,40.236z M30.296,37.106c-0.32-0.37,1.083-0.378,1.304-0.262  C31.146,37.198,30.621,36.961,30.296,37.106z M30.426,50.279c0.803-0.995,2.865-1.313,4.305-0.913  C33.313,49.684,31.962,50.873,30.426,50.279z M30.426,44.148c0.041-0.083,0.737-0.242,1.044,0  C31.172,44.319,30.794,44.285,30.426,44.148z M30.426,36.584c0.099-0.363,1.026-0.371,1.826-0.391  C32.063,36.742,30.833,36.252,30.426,36.584z M30.557,54.714c0.63-0.089,2.83,0.015,2.87,0.521c2.552-0.186,6.178,1.419,9.26,1.435  c1.47,0.007,3.082,0.073,4.565,0.521c-3.087-0.023-5.902,0.794-8.478,0.522C35.786,57.397,33.407,55.046,30.557,54.714z   M30.557,42.323c0.183-0.382,0.729-0.401,1.305-0.392c0.01,0.206-0.063,0.498,0.131,0.521  C31.612,42.823,31.072,42.249,30.557,42.323z M30.818,28.628c0.037-0.531,1.029-0.186,1.043-0.391  C32.243,28.585,31.308,28.72,30.818,28.628z M31.6,38.671c0.071-0.468,1.09-0.478,1.305-0.391  C32.584,38.524,32.011,38.517,31.6,38.671z M31.731,26.541c0.126-0.354,1.23-0.853,2.217-0.782  C33.682,26.567,32.372,26.469,31.731,26.541z M31.731,39.192c0.608-0.487,1.82-0.739,2.739-0.521  C33.803,39.246,32.73,39.258,31.731,39.192z M33.557,50.279c0.481-0.606,1.859-0.314,2.348-0.913  c0.548,0.229,0.655,0.273,1.565,0.261c-0.018,0.373-0.544,0.238-0.913,0.261c0.063,0.415,1.176-0.22,1.043,0.392  c0.936-0.918,1.949,0.142,3.13,0.391c-0.119,0.357-0.458-0.23-0.652,0.131c2.047,0.17,3.8,1.183,6,1.825  c-2.661,0.476-5.67-0.769-8.087-0.391c0.011-0.186,0.021-0.369-0.13-0.392c-0.294,0.072,0.158,0.204-0.131,0.392  c-1.955-0.293-4.084-0.21-5.608-1.174c0.753-0.474,1.121,0.187,1.826-0.131c-0.345,0.333,0.178,0.259,0.521,0.262  c-1.084-0.553,1.912-0.17,2.348-0.262c-0.632-0.344-1.742-0.293-2.739-0.13c-0.366-0.002,0.311-0.356-0.261-0.262  c0.83,0.014,1.972-0.711,2.87-0.13C36.387,49.419,34.618,50.411,33.557,50.279z M32.383,53.931  c-0.126-0.278,0.948,0.304,1.435,0.261C33.446,54.512,32.727,54.07,32.383,53.931z M34.861,41.41  c-0.369-0.704,4.081,0.2,4.434,1.304c-1.941,0.032-4.631,1.003-6.782,0c-0.021-0.415-0.296-0.574-0.261-1.043  C33.162,41.673,34.309,40.946,34.861,41.41z M32.252,41.279c0.243-0.426,0.668-0.089,1.174-0.392  C33.263,41.247,32.721,41.227,32.252,41.279z M32.383,29.411c0-0.088,0-0.174,0-0.261c1.254-0.696,3.641-0.043,5.609-0.262  c-1.806,0.394-3.02,0.253-5.218,0.522C32.644,29.411,32.514,29.411,32.383,29.411z M42.165,28.106  c0.313,0.052-0.072-0.594,0.392-0.392c2.668,0.197,5.259,0.688,7.825,1.305c-6.03-0.093-12.156-0.261-17.999-0.521  c0.349-0.795,1.586-0.58,2.218-0.652c0.724-0.083,2.946-0.743,4.695-0.131c0.797-0.466,1.091,0.066,2.217-0.131  C41.904,27.586,42.061,27.819,42.165,28.106z M32.644,40.758c-0.232-0.096-0.019-0.237,0-0.391c0.305,0.042,0.54,0.156,0.783,0.26  C33.316,41.094,32.754,40.292,32.644,40.758z M32.514,37.759c1.014-0.986,1.91-0.593,3.651-0.783  C35.048,37.622,33.852,37.387,32.514,37.759z M48.425,30.323c-1.509,1.032-3.924,0.465-5.608,0.653  c-2.139,0.237-5.315,0.583-7.956,0.782c0.04,0.177,0.327,0.108,0.521,0.13c-0.999,0.26-2.479-0.127-2.478-1.304  c0.254-0.142,0.942-0.042,1.304-0.392c-0.376-0.038-0.975,0.045-1.565,0.261c0.003-0.308-0.224-0.384-0.13-0.782  C37.759,29.568,43.102,28.761,48.425,30.323z M32.774,36.454c0.082-0.614,0.917-0.476,1.565-0.521  C34.131,36.42,33.462,36.446,32.774,36.454z M33.036,40.105c0.686-0.792,1.786-0.813,2.869-0.782  c-0.021,0.562,0.398,0.51,0.522,1.174C35.247,40.706,33.753,40.72,33.036,40.105z M33.166,58.626c0.18-0.561,0.83-0.059,1.304-0.13  C34.062,58.994,33.647,58.362,33.166,58.626z M33.296,47.409c2.723-0.658,5.464-0.038,7.304,0c-0.069,0.105-0.136,0.212-0.131,0.391  c0.702-0.348,1.414-0.32,1.827,0.262c0.817-0.597,1.208,0.094,2.217,0c-0.069,0.104-0.137,0.212-0.131,0.392  c0.465-0.253,1.444-0.369,1.696,0.261C41.617,47.995,36.665,49.161,33.296,47.409z M33.426,62.278  c1.077,0.011,2.614,0.689,3.913,0.912C35.951,63.491,34.581,62.646,33.426,62.278z M33.817,27.193  c1.208-0.552,2.173-0.229,3.652-0.261C36.848,27.379,35.145,27.111,33.817,27.193z M33.948,44.148  c2.44-0.875,5.462,1.449,7.956,0.914c0.112,0.236,0.336,0.359,0.392,0.651c1.72-0.125,4.039,0.479,5.869,0.652  c-4.529-0.112-8.072,0.831-12.13-1.043c0.036-0.459,0.486,0.326,0.522-0.131C35.608,44.983,34.778,44.741,33.948,44.148z   M36.296,35.019c-0.902,0.011-1.437,0.39-2.348,0.392c-0.026-0.377,0.917-0.563,0.783-0.521  C35.104,34.771,35.925,34.348,36.296,35.019z M33.948,26.541c0-0.13,0-0.26,0-0.391c1.025-0.782,3.234-1.779,4.435-1.174  c0.321-0.503,1.304-0.485,1.826-0.521c4.203-0.292,8.812,0.557,12.392,1.435C46.736,25.976,40.068,26.089,33.948,26.541z   M34.209,38.541c0.179-0.517,1.162-0.229,1.435-0.652C36.027,38.834,34.596,38.483,34.209,38.541z M43.208,31.237  c-1.942,0.462-3.726,1.587-6,1.304c0.009,0.44,0.298,0.023,0.521,0.393c-0.89,0.685-2.908,0.465-3.261-0.522  c1.124-0.148,1.528,0.508,2.608,0.13c-0.309-0.212-0.791-0.253-1.174-0.392c-0.614,0.064-0.315-0.234,0.13-0.13  c1.066-0.412,2.847-0.11,3.782-0.652C40.473,31.765,42.129,31.249,43.208,31.237z M34.601,49.105  c0.384-0.434,1.436-0.384,1.826-0.132C35.806,49.441,35.594,49.012,34.601,49.105z M34.861,36.323  c0.747-0.553,1.345-0.362,2.086-0.521c-0.001,0.259-0.355,0.166-0.261,0.521C36.079,36.323,35.469,36.323,34.861,36.323z   M37.47,59.018c0.44-0.054-0.347-0.506,0.261-0.392c0.598,0.031-0.334,0.362,0.261,0.522c2.817-1.171,6.535,1.131,9.39,1.956  c-4.362-0.203-8.352-0.778-11.478-2.217c0.409-0.442,0.82,0.216,1.305,0.13c0.131-0.393-0.291-0.231-0.522-0.261  C36.942,58.345,37.374,58.84,37.47,59.018z M36.165,43.628c4.916-1.695,8.382,1.75,12.913,2.086  C44.379,45.935,40.425,44.279,36.165,43.628z M36.426,55.365c1.526-0.103,3.263,0.298,4.956,0.652c0.637,0.313-0.716-0.001-0.652,0  C39.572,55.991,37.533,55.844,36.426,55.365z M44.121,53.67c-0.159,0.235-0.801-0.146-1.304,0c2.145,0.507,4.858,0.445,6.391,1.565  c-1.102-0.169-3.653-0.343-5.087-0.651c0.429,0.396,1.312,0.341,1.958,0.521c-1.704,0.247-3.816-0.034-5.74-0.521  c0.018-0.557,0.582,0.178,0.783-0.262c-1.684-0.317-3.398-0.602-4.696-1.304c1.939-0.2,3.832,0.775,6.13,0.651  c-1.806-0.367-3.695-0.651-5.609-0.913c-0.259-0.118-0.259-0.438,0-0.131C38.986,52.591,41.744,53.033,44.121,53.67z M36.426,38.149  c0-0.13,0-0.261,0-0.391c2.64-0.439,5.112-0.914,8.087-0.522C42.305,37.677,38.911,37.602,36.426,38.149z M37.6,39.583  c0.028-0.073-0.199-0.167-0.261-0.129c0.842-0.501,2.747-0.231,3.521,0.129c0.046-0.436,0.925-0.07,1.565-0.129  c-1.178,0.385-3.278,0.519-4.695,0c0.119,0.315,0.524,0.345,0.913,0.391c-0.281,0.458-1.098,0.38-1.826,0.392  c0.021-0.413-0.347-0.436-0.261-0.913C36.922,39.393,37.235,39.515,37.6,39.583z M47.904,38.02c0.021-0.151-0.029-0.232-0.131-0.261  c1.356-0.148,3.203,0.175,5.218,0.261c0.463-0.203,0.079,0.442,0.391,0.391c1-0.451,2.662,0.386,3.913,0.522  c-0.112,0.269-0.908,0.137-1.043,0c1.42,0.529,1.758,0.632,3.261,1.173c-1.152,0.813-2.877,0.371-4.305,0.131  c0.689-0.286,1.438-0.339,2.608-0.392c-1.785-0.049-3.568,0.121-5.608-0.131c-0.874-0.107-1.952-0.206-3-0.26  c-4.329-0.228-8.792-0.486-12.651-0.392c1.646-0.982,4.562-0.771,5.608-1.174c0.371-0.165-0.293,0.469,0,0.261  C43.559,37.161,46.561,37.823,47.904,38.02z M36.687,37.236c-0.403-0.453,0.799-0.412,1.305-0.392  C37.819,37.237,36.958,36.941,36.687,37.236z M36.557,35.019c-0.124-0.471,0.514-0.181,0.783-0.26  C37.324,35.092,36.902,35.018,36.557,35.019z M36.687,48.844c0.369-0.521,1.093-0.1,1.957-0.26  C38.109,48.799,37.212,49.013,36.687,48.844z M36.687,35.541c0.126-0.266,0.501-0.282,0.913-0.262  C37.582,35.652,37.056,35.519,36.687,35.541z M36.687,33.976c0.158-0.353,2.111-0.592,1.826-0.13  c0.513-0.219,0.826-0.266,1.435-0.131C39.214,34.573,37.735,34.762,36.687,33.976z M37.078,36.323  c1.085-0.924,2.978-0.506,4.044-0.13C40.034,36.496,38.383,36.238,37.078,36.323z M72.294,29.672  c-0.456,0.588-1.259-0.222-2.087-0.521c-2.245-0.813-4.81-0.936-7.564-1.566c-2.533-0.579-5.294-0.764-8.086-1.303  c-1.986-0.384-3.733-1.104-5.479-1.436c-3.982-0.757-7.667-0.73-12-0.26c2.09-1.288,5.087-1.12,7.304-1.304  c1.716-0.144,4.452-0.694,5.87,0.13c0.83-0.389,2.937-0.103,3.391,0.392c1.737-0.421,3.804,0.52,5.349,0.913  c1.887,0.481,3.729,0.699,5.478,1.304c4.875,1.688,9.829,4.312,14.086,8.348c-0.335,0.284-0.783-0.43-1.435-0.262  c-0.829-1.371-1.249-1.79-2.609-2.738c-0.715-0.499-1.656-0.825-2.217-1.435C72.251,29.885,72.327,29.729,72.294,29.672z   M37.861,49.235c1.442-0.351,4.158-0.477,6.391-0.262C42.144,49.402,39.667,49.764,37.861,49.235z M37.992,54.975  c0.613-0.167,1.324-0.05,2.086,0.13C39.626,55.263,38.883,55.177,37.992,54.975z M37.992,40.627c0.865-0.441,1.38-0.383,2.478-0.26  c1.515-0.767,6.108-0.702,8.478,0.13c-2.238,0.437-5.986,0.409-7.825-0.392C40.787,41.016,38.589,40.58,37.992,40.627z   M38.122,35.541c0.176-0.576,0.555-0.22,1.043-0.131C38.815,35.722,38.573,35.331,38.122,35.541z M44.904,42.063  c-2.534-0.03-5.172,1.154-6.521-0.522c0.323-0.276,1.047,0.207,1.434-0.392C40.914,41.917,43.232,41.073,44.904,42.063z   M38.513,58.496c0.436-0.297,0.798-0.292,1.435-0.131C39.725,58.663,38.952,58.413,38.513,58.496z M38.513,33.193  c0.304-0.379,0.703,0.245,1.174,0.13C39.694,33.56,38.879,33.389,38.513,33.193z M38.904,63.19c-0.273-0.319,0.466,0.098,0.783,0  c-0.547-0.375,0.205-0.263,0.391,0c0.021-0.151-0.028-0.231-0.13-0.26c1.355,0.077,2.38-0.761,3.521-0.131  c0.082-0.223,0.394-0.215,0.522-0.391c3.948,0.134,6.369,0.511,9.912,0.781c-0.04-0.177-0.325-0.107-0.521-0.13  c1.949-0.158,4.433,0.415,6.391,0.391c0.371,0.174-0.335,0.347-0.651,0.262c0.18,0.297,0.908,0.049,1.305,0.131  c0.027-0.074-0.2-0.167-0.262-0.131c1.277-0.775,1.903,1.253,3.13,1.174C62.766,64.29,62.4,64.1,61.86,63.713  c0.368-0.211,1.221,0.224,1.695,0c-0.015,0.333-0.437,0.259-0.782,0.261c0.139,0.296,0.819,0.05,1.174,0.131  c-0.348-0.61,2.055-0.031,3-0.131c-0.024,2.223-0.934,4.429-3.914,3.652c0.086-0.35,0.374-0.497,0.522-0.783  c-0.211-0.285-0.469,0.479-0.652,0.652c-0.435,0-0.87,0-1.305,0c-0.131,0.393,0.291,0.231,0.521,0.261  C54.787,66.998,46.297,64.838,38.904,63.19z M55.599,66.974c-0.056,0.291-0.642,0.053-0.911,0.131  c0.181,0.34,2.346-0.061,1.695,0.261c-0.878,0.119-0.892,0.004-1.957,0c2.214,0.495,5.239,0.377,7.043,0.913  c-2.925,1.755-6.428-0.163-8.868-1.174c0.015-0.289,0.553-0.057,0.781-0.131c-1.3-0.135-2.331-0.538-3.391-0.913  C51.894,65.856,53.552,66.856,55.599,66.974z M55.208,26.671c0,0.175,0,0.348,0,0.522c0.419-0.726,1.872,0.655,2.478,0.521  c-0.474-0.351-1.014-0.638-1.564-0.913c1.68-0.072,3.882,0.464,5.478,0.913c-0.757,0.002-2.893,0.547-3.782,0  c-0.461,0.015,0.277,0.432-0.131,0.392c-1.309,0.076-2.434,0.716-3.651,0.782c-2.399,0.133-5.053-1.533-8.086-1.826  c-2.31-0.223-4.374-0.151-6.913-0.392c3.287-0.438,4.395-0.461,7.695-0.261c0.793-0.454,3.046-0.393,3.391,0.13  C51.514,25.886,53.713,26.572,55.208,26.671z M39.165,32.934c1.915-1.197,3.94-1.003,6.522-1.696  c-1.048,0.813-3.278,1.207-4.435,2.086C40.58,33.17,39.906,33.019,39.165,32.934z M39.426,35.41c0-0.131,0-0.261,0-0.392  c0.934,0.461,2.771-0.368,3,0.392c0.614-0.456,1.543,0.042,2.739,0C43.369,36.205,41.543,35.503,39.426,35.41z M40.208,58.104  c-0.645,0.078,0.136-0.383,0.13,0c3.752-0.299,9.01-0.519,13.043,0.13c0.921-0.451,2.343-0.144,3.521,0.131  c-0.04,0.177-0.326,0.108-0.521,0.131c1.696,0.876,3.818-0.134,4.564,1.044c0.517-0.041-0.146-0.454,0.391-0.392  c1.16,0.556,2.075,0.658,3,1.304c-2.636,0.158-4.051,0.141-6.391,0.391c0.315,0.691,1.152-0.418,1.174,0.393  c2.865-0.34,5.95-1.05,8.217,0.391c-0.204,0.579-0.146,1.42-0.262,2.087c-3.953,0.184-7.646-1.239-12.389-1.564  c-1.701-0.117-3.22-0.386-4.566-0.652c0.131-0.393-0.29-0.231-0.522-0.261c0.004-0.127,0.16-0.102,0.261-0.131  c-2.003,0.083-5.443-1.501-7.564-2.087c2.941,0.111,6.84,0.318,10.695,0.392C48.134,58.647,43.962,59.466,40.208,58.104z   M40.339,34.498c1.187-0.44,3.057-0.503,4.174,0C43.287,34.498,41.568,34.664,40.339,34.498z M44.643,50.67  c-0.4,0.407-1.021-0.217-1.434,0.131c2.721,0.047,5.456,0.415,8.217,0.913c-3.16-0.998-6.89-1.032-10.304-1.956  c-0.143-0.252,0.808,0.202,0.391-0.131c0.485,0.174,2.347-0.386,3.26-0.261c-0.009-0.002-0.141,0.216-0.13,0.261  c0.968-0.615,6.204,0.521,6.783,1.304c0.034,0.048-0.186,0.287-0.262,0.262c0.091,0.107,0.681-0.252,1.044,0.13  c0.243,0.59-0.469,0.227-0.521,0.521c0.421-0.028,1.952,0.634,2.217,0.261c0.197,0.26,2.172,0.496,2.087,1.044  c0.234,0.018,0.276-0.159,0.522-0.13c-0.109,0.15-0.172,0.35-0.13,0.651c0.346,0.042-0.123-0.73,0.391-0.521  c0.136,0.088,0.674,0.518,1.435,0.651c0.319-0.014,0.027-0.431-0.13-0.391c0.863-0.278,1.73,0.092,2.348,0.261  c-0.282,0.37-0.866,0.439-1.565,0.392c0.232-0.482-0.357,0.024-0.262-0.392c-0.307,0.035-0.079,0.578,0.131,0.521  c-0.319,0.202-0.849,0.194-1.304,0.261c1.587-0.214,3.075,0.469,4.564,1.306c-0.275,0.139-0.9-0.487-1.695-0.262  c-0.047-0.377-0.121-0.309-0.392-0.651c-0.561,0.853-2.138-0.163-3.13-0.131c0.04-0.178,0.326-0.108,0.521-0.13  c-4.686-0.304-10.444-1.905-14.999-3.522c0.032-0.45-1.128-0.333-1.696-0.782C41.894,49.985,43.117,50.416,44.643,50.67z   M61.338,53.8c0.216-0.458,0.481-0.269,0.522-0.651c0.467,0.272,1.055,0.423,1.564,0.651c0.054,0.315-0.237,0.284-0.131,0.652  c-0.259-0.217-0.165,0.012-0.521,0c0.04,0.178,0.325,0.108,0.521,0.132c0.181,0.616-0.407,0.856-0.13,1.174  c0.334-0.232,0.294-0.839,0.521-1.174c1.607-0.364,2.413,0.779,3.652,1.174c0,0.26,0,0.521,0,0.781  c-0.576,0.174-0.941-0.612-1.174,0c-0.491-0.362-1.271-0.216-2.217-0.261c0.021-0.152,0.237-0.11,0.391-0.13  c-1.594-0.134-2.85-1.006-3.783-1.304c-0.035-0.212,0.124-0.226,0.131-0.393c-0.347-0.002-0.744,0.05-0.913-0.13  C60.451,54.075,60.763,53.717,61.338,53.8z M58.729,45.976c-0.353,0.517-1.61,0.128-1.956,0.651  c-5.659-0.735-11.415-1.609-15.521-3.521c1.897-0.221,4.424-0.325,5.869,0C50.85,43.063,55.579,44.426,58.729,45.976z   M41.382,46.889c0.37-0.082,1.111-0.313,1.435-0.131C42.46,47.057,41.81,46.952,41.382,46.889z M41.774,55.758  c0.073-0.818,2.902,0.572,4.043,0.651C44.656,56.611,42.731,55.758,41.774,55.758z M41.774,41.019c0.336-0.285,1.328-0.117,1.695,0  C43.174,41.262,42.079,41.196,41.774,41.019z M42.035,60.975c2.004-0.236,4.925,0.579,6.652,0.261  c0.153,0.021,0.109,0.237,0.131,0.391c0.368-0.538,1.203,0.235,1.956,0.13C48.518,62.526,44.58,61.527,42.035,60.975z   M56.513,34.367c-4.381-0.133-10.431-0.944-14.478-0.913c3.466-2.795,10.073-2.906,13.434-0.131  c0.259,0.214,0.929,0.255,0.521,0.913C56.256,33.975,56.338,34.203,56.513,34.367z M58.991,51.062  c0.937,0.41,1.583,1.111,2.607,1.435c-3.558-1.001-6.702-2.289-10.563-3.261c-0.501-0.23,1.652,0.108,2.216,0.131  c1.94,0.075,4.153,0.288,5.74,1.304C59.448,50.556,59.126,51.009,58.991,51.062z M63.164,48.844  c0.326,1.593,0.473,3.018,0.261,4.565c-0.617-0.078-0.934-0.458-1.564-0.521c-0.196-2.111-2.74-2.434-4.696-3.13  c-0.018-0.008,0.18-0.237,0.131-0.262c-1.144-0.566-3.457-0.459-4.825-0.522c-3.549-0.159-7.51-1.319-10.044-1.695  c-0.399-0.201,0.566-0.114,0.783-0.13c0.385-0.113-0.303-0.195-0.131-0.521c0.636,0.06,1.528-0.137,1.957,0.131  c-0.313-0.018-1.279,0.196-1.695,0c-0.111-0.024-0.123,0.051-0.131,0.131c0.958,0.103,2.403,0.36,3.261-0.131  c2.736-0.017,7.472,0.384,10.957,0.912c0.919,0.141,1.902,0.63,2.478,0.392c0.479-0.197-0.634-0.174,0.13-0.13  C60.602,47.964,62.325,48.918,63.164,48.844z M43.078,36.454c0.867-0.499,2.829-0.24,3.913-0.131  C45.778,36.698,44.22,36.237,43.078,36.454z M43.339,42.583c1.685-0.407,4.447-0.628,5.999,0.392  C47.847,42.64,45.946,42.538,43.339,42.583z M43.86,53.019c0.601-0.108,3.027,0.179,4.174,0.391c-0.374,0.728,0.331-0.05,0.913,0.13  c-0.131,0.216-0.554,0.143-0.782,0.261c0.215,0.331,0.932-0.236,1.043,0.392c-0.693-0.137-1.922-0.082-3-0.261  c-0.667-0.11-1.754-0.468-1.304-0.392c0.876-0.185,1.113,0.154,2.086,0.131c-0.906-0.483-1.948-0.438-3.13-0.392  C43.94,53.163,44.018,53.046,43.86,53.019z M43.991,41.41c0.712-0.521,1.325,0.047,2.087-0.131  C45.766,42.176,44.73,41.291,43.991,41.41z M44.252,34.889c0.279-0.057,2.876,0.041,3.652,0.261  C46.972,35.62,45.446,35.161,44.252,34.889z M44.773,34.236c0.813-0.314,2.462-0.324,3.131,0.131c2.964-0.41,6.005,0.525,9.13,0.782  c-0.108,0.311,0.646,0.607,0,0.652c0.156-0.171,0.051-0.204,0-0.392c-1.146,0.261-4.229-0.251-6.913-0.521  C48.088,34.684,46.555,34.604,44.773,34.236z M45.035,56.018c-0.021-0.151,0.029-0.231,0.13-0.26  c2.71,0.024,5.306,0.851,8.478,1.303C50.104,57.328,47.811,56.639,45.035,56.018z M45.165,37.236  c-0.021-0.151,0.029-0.232,0.13-0.261c0.475-0.04,0.849,0.021,1.174,0.131c0.217,0,0.435,0,0.652,0c0.173,0,0.348,0,0.521,0  C47.35,37.354,45.873,37.246,45.165,37.236z M45.295,46.758c0.352-0.265,0.506,0.005,0.913,0  C46.127,47.035,45.405,46.879,45.295,46.758z M46.079,41.801c1.756-0.65,4.722-0.32,7.172,0  C50.326,41.902,49.086,41.896,46.079,41.801z M50.252,29.803c-1.001,0.854-2.78,0.071-3.783-0.262  c-0.612-0.095,0.72-0.235,0.913,0.131C47.98,29.341,49.352,29.8,50.252,29.803z M59.382,58.234  C59.872,57.74,61.224,58.437,59.382,58.234L59.382,58.234z M66.294,57.844c-1.142,0.688-2.996,0.258-4.434,0.131  c0.038-0.268,0.353-0.256,0.391-0.522c-0.403,0.031-0.506,0.363-0.782,0.522c-4.903,0.002-9.775-1.85-15-2.349  c0.503-0.319,2.186-0.441,2.608,0.132c0.405,0.013,0.373-0.411,0.913-0.262c0.154,0.541,1.669-0.31,1.957,0.521  c0.287-0.396,1.165,0.001,1.956-0.131c-0.38-0.402-1.305-0.259-1.956-0.391c-0.135-0.438,0.405-0.203,0.653-0.261  c-1.995-0.093-3.682-0.494-5.349-0.913c3.994-0.304,8.84,1.195,13.174,1.956c1.691,0.298,0.778-0.146-0.262,0.261  C61.563,56.393,64.503,56.464,66.294,57.844z M46.73,36.063c0.235-0.505,0.832-0.146,1.305-0.13  C47.853,36.229,47.125,35.981,46.73,36.063z M47.382,57.322c0.309-0.16,0.981-0.389,1.305-0.131  C48.359,57.521,47.729,57.338,47.382,57.322z M48.295,39.976c1.09-0.359,2.217,0.055,3.913,0  C51.202,40.727,49.458,40.374,48.295,39.976z M48.425,49.758c-0.012-0.404,0.394-0.39,0.783-0.392  c1.865,0.554,3.557,0.771,5.349,1.695c-0.005,0.127-0.16,0.102-0.262,0.131c0.878,0.061,1.999,0.356,2.348,1.304  c-1.146,0.145-2.416-0.714-3.521-1.043c0.045-0.171,0.229-0.206,0.26-0.392c-0.019-0.291-0.328,0.17-0.652,0  c0.004,0.127,0.16,0.102,0.262,0.131C51.905,51.063,50.148,50.036,48.425,49.758z M55.86,42.583c0.145-0.26,0.7,0.159,1.174,0  c0.037,0.212-0.124,0.226-0.131,0.392c1.602-0.597,2.883,0.394,4.435,0.392c0.355,0.818,0.792,1.557,0.913,2.609  C60.085,44.88,58.054,43.652,55.86,42.583z M60.033,45.323c-0.72-0.394-1.25-0.175-1.564-0.914  c-3.171-0.303-6.368-1.591-9.913-2.216c0.587-0.298,0.815,0.066,1.435,0.13c-0.211-0.238,2.204-0.261,3.522-0.13  c0.979,0.096,3.744,1.105,4.173,1.435c0.196,0.148,0.047,0.398,0.262,0.521c0.128,0.074,0.538-0.045,0.651,0  C58.85,44.25,59.833,45.017,60.033,45.323z M48.556,35.149c0.318-0.588,0.688-0.002,1.305-0.131  C49.491,35.317,49.051,35.258,48.556,35.149z M48.817,46.105c0.995,0.024,2.59-0.107,3.521,0.261  C51.229,46.734,49.792,46.306,48.817,46.105z M48.947,41.019c-0.46-0.127,0.798-0.267,0.913-0.261  C50.285,40.778,48.888,41.002,48.947,41.019z M49.86,37.106c0.773-0.306,1.29-0.009,2.087,0C51.5,37.375,50.33,37.249,49.86,37.106z   M49.991,30.585c0.278-0.549,1.206-0.446,1.826-0.652c0,0.131,0,0.261,0,0.391c0.52-0.427,0.711-0.3,1.306,0  C52.199,30.532,51.117,30.582,49.991,30.585z M50.643,62.409c-0.258-0.234,0.529-0.326,0.521,0.13  c0.134-0.085,0.135-0.3,0.392-0.261c1.111,0.238,2.022-0.05,3.001,0.392c0.445-0.105,0.744,0.193,0.131,0.13  C53.186,62.732,51.306,62.585,50.643,62.409z M50.773,35.802c0.358-0.438,0.94-0.093,1.696,0c-0.005-0.127-0.16-0.102-0.262-0.13  c0.225-0.174,1.262-0.051,1.435,0.261c1.581-0.024,3.753-0.389,4.305,1.043c-2.642,0.203-4.846-0.714-6.783-0.782  c-0.2-0.069-0.008-0.137,0.131-0.131C51.21,35.888,51.017,35.82,50.773,35.802z M51.164,30.977c0.128-0.568,1.275-0.116,1.827-0.262  c-0.081,0.116-0.158,0.233,0,0.262C52.807,31.065,51.754,30.914,51.164,30.977z M55.599,41.019c1.59-0.217,3.3,0.136,4.956,0.521  c0.192,0.497-0.582,0.026-0.391,0.522c0.295,0.377,0.925,0.032,1.044,0.781c-3.137-0.6-7.021-1.189-9.913-2.217  c1.809-0.558,3.357-0.126,5.348,0C56.554,41.017,56.123,41.064,55.599,41.019z M51.816,29.02c0.107-0.264,0.688,0.082,0.913,0.131  C52.548,29.489,52.055,29.055,51.816,29.02z M52.339,51.453c0.287-0.109,1.275,0.199,1.435,0.651  c-0.499-0.095-0.871-0.462-1.304-0.261C52.48,51.659,52.491,51.475,52.339,51.453z M55.208,32.803  c-1.003-0.39-1.741-1.041-2.869-1.305c0.869-0.277,1.063,0.041,1.956,0C54.379,32.152,55.125,32.146,55.208,32.803z M52.729,37.759  c0.042-0.482,1.527-0.369,1.435,0.13C53.454,38.004,53.216,37.505,52.729,37.759z M53.513,46.758  c0.435-0.146,1.325-0.443,1.435,0.131C54.218,46.668,54.208,46.935,53.513,46.758z M53.643,29.541  c0.409-0.315,1.229,0.07,1.565,0.262C55.222,29.879,54.104,29.748,53.643,29.541z M54.164,30.715c0.435,0,0.87,0,1.305,0  c0,0.131,0,0.262,0,0.392c0.111,0.024,0.123-0.051,0.13-0.13C55.93,31.342,53.922,31.473,54.164,30.715z M54.295,37.889  c0.281-0.018,1.099-0.175,1.826-0.13c0,0.173,0,0.347,0,0.521C55.891,37.545,54.954,38.195,54.295,37.889z M54.426,41.932  c0.357-0.222,1.192,0.194,1.826,0.131C55.779,42.398,54.831,42.097,54.426,41.932z M54.688,50.801  c0.404-0.582,0.646,0.127,1.042,0.261c1.55,0.522,3.604,0.925,5.739,1.826c0.175,0.749-1.277,0.253-0.652,0.521  c-1.62,0.166-3.049-1.034-4.564-1.695c0.011-0.356-0.217-0.263,0-0.521C55.705,51.541,55.479,50.622,54.688,50.801z M62.903,28.106  c0.477,0.045,1.03,0.014,1.044,0.521c-0.175,0-0.349,0-0.522,0c0.06,0.257,0.915,0.234,0.653-0.261  c1.87,0.521,3.394,1.388,4.825,2.348c-0.29,0.487-0.35-0.331-0.783-0.13c0.201,0.102,0.773,0.934,0.913,0.261  c0.067,0.495,0.351,0.282,0.913,0.652c0.072,0.289-0.249,0.186-0.261,0.391c0.112,0.558,0.754-0.172,0.783,0.522  c-2.75-0.6-5.592-1.104-8.608-1.435c-0.926-0.988-1.974-1.853-3.131-2.609C60.213,27.478,61.669,29.053,62.903,28.106z   M61.078,30.454c-1.953,0.039-3.993-0.963-6.131-1.174c0.904-0.484,2.433-1.037,3.521-0.782  C59.678,28.78,60.064,30.059,61.078,30.454z M59.903,47.148c-0.098,0.295-0.731,0.052-1.043,0.13  C58.871,46.882,59.713,46.974,59.903,47.148z M55.078,46.889c0.805-0.593,2.817,0.36,3.651,0  C58.716,47.634,55.688,46.82,55.078,46.889z M59.513,33.063c0.949,0.05,1.733,1.278,2.738,1.696  c-2.924,0.566-6.083-0.739-7.173-3.131C56.512,31.607,59.013,31.91,59.513,33.063z M55.729,62.931  c0.005-0.127,0.16-0.101,0.261-0.131c-0.003-0.126-0.159-0.102-0.261-0.13c0.302-0.25,1.339-0.127,1.435,0.261  C56.847,62.678,56.073,62.805,55.729,62.931z M60.164,46.235c-1.232-0.376-3.009-1.338-4.435-1.956  c1.808,0.41,3.317,1.117,5.087,1.565C60.976,46.277,59.748,45.977,60.164,46.235z M55.729,31.367  c-0.023-0.111,0.052-0.122,0.131-0.13c0.148-0.025,0.073-0.131,0-0.131c0.211-0.327,0.628,0.231,0.913,0.261  C56.5,31.689,56.15,30.991,55.729,31.367z M56.252,38.28c-0.037-0.211,0.123-0.225,0.131-0.392c0.359,0.249,1.16,0.058,1.303,0.521  C57.092,38.484,56.874,38.18,56.252,38.28z M56.513,33.976c0.015-0.384,1.048,0.296,1.173,0.652  c-0.404,0.014-0.622-0.16-0.912-0.261C56.817,34.105,56.746,33.959,56.513,33.976z M62.251,31.889  c-0.058,0.116-0.114,0.233-0.261,0.261c-0.024,0.111,0.051,0.123,0.13,0.131c-1.599-0.14-4.061-0.547-5.478-1.304  C58.636,30.862,60.226,31.541,62.251,31.889z M57.164,37.628c0.37-0.403,0.809,0.228,1.305,0.131  C58.148,38.112,57.575,37.615,57.164,37.628z M57.295,62.931c0.557-0.667,1.307,0.141,1.956,0  C58.712,63.334,58.013,62.782,57.295,62.931z M57.426,46.627c0.58-0.481,1.28-0.036,2.087-0.261  c-0.062,0.278,0.186,0.248,0.391,0.261c-0.045,0.255-1.141,0.194-0.652-0.13C58.79,46.978,58.211,46.547,57.426,46.627z   M57.557,35.279c1.538-0.016,2.347,0.697,3.391,1.175C60.146,36.253,57.885,36.387,57.557,35.279z M58.208,40.758  c0.105-0.009,1.014-0.368,1.825-0.391c-0.085,0.477,0.283,0.5,0.262,0.912C59.385,41.03,59.09,40.948,58.208,40.758z M58.208,36.584  c0.331-0.279,1.336-0.125,1.305,0.392C58.857,37.234,58.533,36.97,58.208,36.584z M58.86,37.889c1.396,0.1,3.824,0,4.564,0.913  C62.43,39.484,60.013,38.597,58.86,37.889z M58.991,39.845c-0.049-0.553,0.564-0.114,0.781-0.131  C59.654,40.188,59.388,39.794,58.991,39.845z M61.99,35.933c-0.683-0.448-1.961-0.3-2.608-0.783  c1.348-0.014,3.243-0.233,3.912,0.783C63.13,36.465,62.553,35.797,61.99,35.933c0.403,0.814,2.238,0.196,2.348,1.304  c0.09,0.176,0.397-0.113,0.521,0.261c-1.292,0.16-3.456-0.711-4.434-1.695C60.626,35.44,61.362,36.396,61.99,35.933z M59.382,32.28  c1.235-0.014,1.936,0.019,3,0.392c0.023,0.008-0.265,0.207-0.392,0.131c0.492,0.298,1.513,0.128,1.435,0.781  c-0.104-0.068-0.212-0.136-0.392-0.13c0.102,0.116,0.141,0.295,0.131,0.521c0.534-0.128,0.682-0.139,0.914,0.261  c-0.087,0.176-0.28,0.243-0.522,0.262c0.222,0.082,0.215,0.394,0.392,0.521c-2.027,0.288-2.499-2.109-4.435-2.347  c0.068-0.105,0.136-0.212,0.131-0.392C59.556,32.28,59.469,32.28,59.382,32.28z M60.033,39.714c0.086-0.465,0.775-0.004,1.175,0  C60.798,39.953,60.567,39.685,60.033,39.714z M60.295,46.235c0.341-0.036,0.561,0.048,0.521,0.392  c0.452-0.504,1.576-0.453,1.826,0.262C62.098,46.899,60.52,47.223,60.295,46.235z M60.295,40.236  c2.582,0.288,3.929,1.81,6.129,2.478c-1.781,0-3.578-1.116-5.607-1.304C60.762,40.899,60.239,40.857,60.295,40.236z M60.426,37.236  c0.051-0.631,0.639,0.03,1.043-0.13C61.371,37.4,60.737,37.157,60.426,37.236z M66.947,43.758c0.119,0.355,0.407-0.183,0.782,0  c-0.285,0.306-0.299,0.363,0.521,0.391c-0.746,0.344,0.13,0.062,0.131,0.653c-0.27-0.109-0.587-0.112-0.262,0.13  c-2.035-0.878-6.293-0.663-7.173-3.131c1.652,0.139,4.364,1.103,6.26,1.827C67.204,43.755,67.048,43.729,66.947,43.758z   M61.078,58.365c0.055-0.29,0.691-0.103,0.782,0C63.894,58.313,61.77,58.714,61.078,58.365z M63.294,40.236  c0.19,0.058-0.013,0.114,0,0.261c0.361-0.017,0.448-0.249,0.262,0.13c1.037,0.171,2.856,0.597,3.261,1.826  c-1.765-0.251-3.379-1.738-5.348-2.217c0.239-0.421,0.44-0.072,0.782-0.392C62.453,40.309,63.083,40.215,63.294,40.236z   M61.86,43.758c0.561-0.034,2.551,0.164,2.218,1.044c0.957-0.497,1.986,0.535,2.869,0.912c-0.236,0.169-0.479,0.063-1.044,0.131  c0.81,0.309,1.615-0.155,2.086,0.521c-0.84,0.663-3.563,1.32-4.304,0.131C62.502,46.601,62.365,44.874,61.86,43.758z M62.251,47.67  c-0.021-0.282,0.464-0.059,0.652-0.13C62.85,48.047,62.457,47.89,62.251,47.67z M62.251,31.498c0.505-0.239,1.461,0.188,1.956,0.391  c2.282-0.11,6.601-0.016,7.174,2.087c-2.337-0.662-4.257-1.742-6.782-2.217c0.463,0.493,1.296,0.617,2.087,0.782  c0.037,0.512-0.801-0.115-1.304-0.261C64.363,31.987,63.204,31.783,62.251,31.498z M62.773,32.411  c0.693-0.582,1.842,0.574,2.739,0.651C64.57,33.271,63.513,32.509,62.773,32.411z M63.294,47.932  c0.021-0.152-0.027-0.231-0.13-0.262c0.432-0.524,1.404,0.102,1.826,0.392c-0.461,0.358-1.063-0.561-1.435,0  C63.742,47.683,63.655,47.915,63.294,47.932z M63.294,39.323c-0.418,0.033,0.854-0.324,1.044,0.131  C63.614,39.463,64.002,39.537,63.294,39.323z M63.164,38.02c0.154-0.352,0.681,0,0.914,0C64.023,38.46,63.458,38.092,63.164,38.02z   M66.164,50.931c0.521,0.325,1.52-0.263,2.218-0.521c1.369,0.499,2.804,1.83,4.043,2.869c-0.686,0.576-2.411,0.111-3.521,0.261  c-0.097,0.654,0.48-0.173,0.521,0.261c-0.095,0.277-1.91,0.646-2.349,0.131c0.084-0.471,0.626,0.036,1.175-0.131  c-1.85-0.086-1.656-1.4-2.479-2.086c0.004-0.127,0.159-0.102,0.262-0.131c-0.912-1.002-1.925-1.901-2.609-3.13  c1.722,0.486,3.485,0.185,4.695,1.826C67.562,50.59,66.865,50.763,66.164,50.931z M68.642,37.889  c-1.188-0.637-2.394-0.859-3.651-1.174c0-0.174,0-0.348,0-0.521c-0.152,0.021-0.11,0.237-0.131,0.391  c-0.226-0.209-0.281-0.586-0.261-1.043c1.167,0.385,2.167,0.409,3.262,0.652c-0.047,0.171-0.23,0.205-0.262,0.391  c0.529-0.548,0.915,0.075,1.695,0c-1.339-0.703-3.114-0.972-4.825-1.305c0.113-0.714-0.473-1.644-1.044-2.086  c0.74-0.389,1.408,0.415,2.218,0.391c0.262,0.267-0.058,0.256-0.13,0.521c1.22-0.342,2.992,0.412,3.651,1.436  c-0.143-0.032-0.089-0.259-0.261-0.262c-0.354,0.119,0.299,0.292,0.261,0.522c0.313,0.054,0.283-0.238,0.652-0.13  c-0.3,0.279,0.183,0.536,0.652,0.391c0.374,0.655,0.372,0.838,0.781,1.565c-0.098,0.819-1.212,0.54-1.695,0.652  C69.588,38.038,69.147,37.932,68.642,37.889c-0.061,0.277,0.187,0.249,0.392,0.261c-1.324-0.128-3.278,0.05-3.913-1.174  c0.243-0.124,0.437,0.391,0.522,0C66.194,37.431,67.642,37.871,68.642,37.889z M64.599,36.454c-0.525,0.09-0.32-0.55-0.782-0.521  C64.148,35.525,64.647,36.049,64.599,36.454z M64.469,50.67c0.73,0.307,1.54,1.444,1.825,2.608  c-0.239,0.196-0.644,0.227-0.912,0.392c0.333,0.157,1.449-0.445,1.435,0.521c-0.871,0.339-2.11,0.09-3-0.521  c-0.024-1.004,0.241-2.338-0.131-3.131c0.29-0.316,0.642-0.087,1.043-0.13C64.777,50.632,64.628,50.655,64.469,50.67z   M67.469,59.148c-0.002,0.346,0.048,0.744-0.131,0.913c-0.721-0.063-1.071-0.494-1.825-0.521c0.389-0.473,1.702,0.495,1.825-0.131  c-0.702,0.063-2.264-0.306-2.609,0c0.453-0.469-0.661-0.104-0.781-0.392c0.457-0.41,1.954,0.271,2.738-0.13  C66.754,59.156,66.89,59.308,67.469,59.148z M64.207,68.278c0.12-0.228,0.409-0.289,0.783-0.262  C65.114,68.489,64.476,68.199,64.207,68.278z M64.207,38.933c0-0.131,0-0.262,0-0.392c0.308-0.003,0.385,0.225,0.783,0.13  C64.852,39.106,64.595,38.68,64.207,38.933z M67.469,40.888c-0.68-0.146-1.336-0.315-1.826-0.651  c-0.037-0.211,0.123-0.225,0.13-0.392c-0.753,0.102-0.727-0.577-1.304-0.652c0.612-0.4,1.063-0.002,1.695-0.26  c-0.236,0.659,1.123,0.649,0.652,1.435C66.918,40.655,67.623,40.342,67.469,40.888z M72.294,64.887  c0.53,0.59,0.833,1.327,1.435,2.087c0.224,0.28,0.585-0.088,0.522,0.392c-0.138,1.041-2.063,0.576-3.392,0.913  c0.864,0.036,2.977,0.195,3.521-0.522c0.604-1.597-1.393-2.429-1.565-3.261c1.384-0.058,1.716,1.362,2.609,1.695  c-0.205,0.478-0.195-0.303-0.521-0.13c0.273,0.731,0.922,0.288,1.304,0.913c-0.073,0.378-0.203-0.2-0.392-0.131  c-0.202,0.212,0.515,0.609,0.783,0.783c-1.291,1.281-3.589,1.622-5.218,2.217c-1.352-0.983-3.941-0.854-5.999-1.436  c0.275-0.332,0.634-0.583,0.782-1.042C68.471,66.802,70.175,65.638,72.294,64.887z M65.382,59.93  c0.146-0.179,0.887,0.149,1.173,0.261C66.259,60.521,65.691,60.02,65.382,59.93z M65.382,57.191  c0.175-0.665,0.662-0.364,1.173-0.521c-0.615,0.312,0.603,0.466,0.914,0.261c0.024,0.11-0.052,0.123-0.131,0.13  c0,0.088,0,0.174,0,0.262c-0.306-0.042-0.489-0.207-0.914-0.131c0.242,0.194,0.62,0.25,1.045,0.261  C66.915,58.156,66.002,57.259,65.382,57.191z M65.513,58.365c0.474-0.28,1.53-0.401,1.956,0  C66.934,58.764,66.188,58.259,65.513,58.365z M69.164,47.148c-0.083,1.138,1.405,1.216,1.436,1.825  c-0.208,0.324-0.914,0.054-1.175,0c0-0.303,0-0.607,0-0.912c-0.311,0.081,0.021,0.803-0.261,0.912  c-1.454-0.198-2.452-0.852-3.521-1.434C66.409,47.444,67.884,47.58,69.164,47.148z M68.511,47.278c-0.738,0-1.477,0-2.217,0  c0.713-0.2,1.345-0.48,2.217-0.521C68.511,46.932,68.511,47.105,68.511,47.278z M65.903,54.714c0.028-0.406,0.648-0.222,1.044-0.262  c0.209,0.227,0.063,0.807,0.391,0.913C67.057,55.468,66.237,54.991,65.903,54.714z M68.511,46.105  c-0.566-0.319-2.18-0.676-2.607-1.565c0.682,0.231,1.354,0.472,2.086,0.652c0.247,0.229-0.228,0.453,0.393,0.391  C68.153,46.246,68.469,45.587,68.511,46.105z M71.381,30.193c0.249,0.325,0.566-0.162,0.913,0.13  c0.012,0.082-0.178,0.158-0.261,0.131c0.712,0.235,2.177,0.674,2.87,1.435c-0.004,0.127-0.16,0.102-0.262,0.131  c0.284,0.43,0.453,0.297,0.913,0.392c-0.671,0.558,1.09,0.542,0.913,1.435c-1.752-0.466-3.413-1.022-5.348-1.305  c-1.278-1.504-2.641-2.923-4.826-3.521c-0.332-0.244,0.291-0.628-0.391-0.521c2.015-0.059,4.018,1.024,5.869,1.565  C71.751,30.216,71.534,30.173,71.381,30.193z M66.555,66.974c0.071-0.771,0.651-1.758,0.914-3c0.672,0.224,1.563,0.071,2.348,0.131  c1.096,0.082,1.186,0.146-0.392,0.131c0.805,0.732,1.609-0.136,2.608,0.26C70.449,65.498,68.298,66.558,66.555,66.974z   M66.555,38.28c0.026-0.183,0.854-0.083,0.783,0.261C66.887,38.644,66.787,38.396,66.555,38.28z M66.686,60.713  c0.328,0.107,0.698,0.17,0.652,0.652C66.978,61.291,66.606,61.227,66.686,60.713z M66.947,33.323  c0.237-0.229,1.051,0.072,1.173,0.392C67.668,33.646,67.426,33.366,66.947,33.323z M67.207,49.105  c0.491-0.227,1.331,0.317,1.565,0.782C68.096,49.781,67.716,49.379,67.207,49.105z M67.207,42.323  c1.131-0.421,1.193,0.704,1.435,1.435c-0.479-0.005-0.705-0.938-1.173-0.521C67.473,42.93,67.812,42.753,67.207,42.323z   M67.207,39.845c-0.052-0.313,0.594,0.072,0.392-0.391c0.251,0.183,0.524,0.345,0.912,0.391c-0.434,0.313-0.521,0.165-1.173,0.261  C67.359,39.954,67.309,39.874,67.207,39.845z M67.469,55.235c0.039-0.177,0.326-0.108,0.521-0.131  c-0.223-0.211-0.747-0.121-0.651-0.652c1.833-0.08,3.323-0.502,5.217-0.521c-0.6,1.399-1.635,2.364-3.651,2.348  c0.296,0.372,0.765-0.184,1.304,0C69.22,56.951,67.768,56.092,67.469,55.235z M67.469,63.713c0.099-0.478-0.049-1.712,0.521-1.304  c0.192-0.496-0.582-0.026-0.391-0.522c1.18,0.56,2.528,0.951,3.261,1.957C69.407,63.832,68.699,63.855,67.469,63.713z   M72.425,63.713c-1.812,0.159-2.758-1.677-4.564-1.957c0.399-0.305,0.101-0.126-0.131-0.391c0.098-0.708,0.838,0.662,1.174,0.131  C69.605,62.213,71.404,62.887,72.425,63.713z M67.729,57.975c0.328-0.567,1.031-0.25,1.564-0.392  c-0.021-0.153-0.237-0.109-0.391-0.131c0.445-0.651,0.511,0.38,1.174,0.262c-0.242,0.251-0.239,0.104-0.131,0.521  c0.368,0.108,0.338-0.184,0.653-0.13c-0.041,0.344,0.18,0.429,0.521,0.392c-0.771,0.57-2.383,0.029-3.26-0.131  C67.871,58.18,67.881,57.996,67.729,57.975z M67.729,57.322c-0.192-0.496,0.582-0.025,0.391-0.522  c0.308,0.168,0.243-0.017,0.652,0.131C68.636,57.271,68.242,57.357,67.729,57.322z M69.294,40.236  c-0.024,0.105-0.131,0.13-0.13,0.261c1.174,0.106,1.192,0.692,2.217,1.043c-0.004,0.128-0.16,0.102-0.261,0.131  c0.298,0.18,0.691,0.265,1.044,0.392c-0.648,0.403,1.373,0.362,1.305,1.435c-1.622-1.253-5.227-1.204-5.608-3.261  C68.579,40.186,68.574,40.186,69.294,40.236z M67.86,60.062c0-0.132,0-0.262,0-0.392c0.44,0.036,0.748,0.207,1.304,0.13  C68.925,60.082,68.395,60.074,67.86,60.062z M67.86,59.54c0-0.131,0-0.262,0-0.392c0.854-0.073,1.478,0.086,1.956,0.392  C69.241,59.829,68.748,59.506,67.86,59.54z M71.903,36.063c-1.325-0.501-2.426-1.227-3.652-1.826  C68.842,34.438,71.452,34.854,71.903,36.063z M68.251,60.843c1.285,0.15,2.879,1.122,4.174,1.696  c-0.021,0.153-0.237,0.11-0.392,0.131c0.483,0.079,1.209,0.016,1.436,0.652c-0.64,0.562-2.421-0.736-3.522-1.306  c-0.278-0.143-0.799-0.585-0.521-0.651C68.778,61.447,68.555,61.104,68.251,60.843z M68.251,33.846  c1.243-0.111,1.929,0.738,3.261,1.043C70.477,35.009,69.447,33.998,68.251,33.846z M68.251,33.323  c0.944,0.057,2.529,0.6,3.261,1.305C70.432,34.187,69.38,33.717,68.251,33.323z M72.945,61.496  c-0.076,0.309,0.152,0.958,0.262,0.652c-0.332,0.793-2.016-0.704-3.261-1.174c-0.523-0.198-0.994-0.233-1.436-0.522  c1.079-0.015,2.595-0.449,3.522,0.261c0.306-0.002-0.048-0.355-0.261-0.261C72.532,60.118,72.161,61.604,72.945,61.496z   M71.12,51.714c-0.764-0.541-1.552-1.056-2.348-1.565c0.248-0.507,0.355,0.173,0.913-0.13c0.342,0.492,0.929,0.872,1.304,1.043  C71.136,51.181,71.03,51.304,71.12,51.714z M68.772,46.497c0.351-0.318,0.729,0.147,1.044-0.262c-0.02-0.241-0.442-0.08-0.522-0.26  c0.353-0.218,1.187,0.199,1.695,0.26C70.26,46.72,69.425,47.161,68.772,46.497z M68.772,42.975c1.239,0.197,2.799,1.201,3.782,2.088  c-0.232-0.037-0.268,0.123-0.13,0.13c-0.841,0.37-2.054-0.935-3.131-1.174C68.986,43.519,69.309,43.108,68.772,42.975z   M68.903,39.845c0.556-0.419,0.992,0.394,1.696,0.261C70.021,40.548,69.396,39.922,68.903,39.845z M69.164,39.063  c-0.405-0.476,0.693,0.028,1.174-0.13c-0.292,0.289,0.309,0.353,0.392,0.65c0.318-0.014,0.027-0.431-0.13-0.391  c1.001,0.001,2.198,1.065,2.869,1.175c-0.903,0.493-2.232-0.799-3.522-0.784c0.225-0.626-0.048-0.414-0.652-0.391  C69.331,38.96,69.171,38.926,69.164,39.063z M69.294,49.366c1.641-0.625,1.776,1.342,3,1.564c0.119,0.229,0.045,0.651,0.261,0.783  C71.62,51.3,70.343,50.101,69.294,49.366z M69.294,45.192c-0.023-0.111,0.052-0.123,0.131-0.13c0.153-0.021,0.11-0.238,0.13-0.392  c0.277,0.331,0.54,0.678,1.045,0.782c-0.35,0.365-0.648,0.103-1.045,0.261C69.825,45.455,69.417,45.416,69.294,45.192z M69.555,53.8  c0.352-0.3,1.259-0.045,1.826-0.13C70.961,53.915,70.202,54.005,69.555,53.8z M69.686,59.018c0.181-0.298,0.907-0.049,1.304-0.13  C70.764,59.26,70.237,59.037,69.686,59.018z M69.686,47.278c0.426-0.816,2.944-1.054,2.869,0.131c0,0.009-0.364-0.006-0.391,0  c0.188,0.202,0.508,0.274,0.912,0.261c0.023,0.517-0.2-0.041-0.391,0.262c0.201,0.233,0.783,0.086,0.912,0.391  c-0.632,0.344,0.245,1.192,0.653,0.913c0.044,0.348,0.325,0.458,0.391,0.783c-0.443-0.171-1.684-0.075-1.435-0.522  c-0.686,0.29-0.723-0.262-1.564-0.13c-0.072-0.695-1.934-1.447-1.043-1.826C70.517,47.23,69.795,47.56,69.686,47.278z   M69.946,57.191c-0.127-0.543,0.964-0.167,1.826-0.521c-0.239,0.543-1.065,0.499-1.695,0.652  C70.336,57.163,70.044,56.872,69.946,57.191z M69.946,59.409c0.266-0.3,1.083-0.048,1.565-0.131  C71.356,59.902,70.303,59.654,69.946,59.409z M70.077,35.541c-0.039,0.067,1.924,0.315,1.695,1.435  C71.023,36.682,70.759,35.902,70.077,35.541z M70.077,44.932c0.457-0.149,1.422,0.313,1.695,0.782  C71.117,45.949,70.635,45.195,70.077,44.932z M70.077,42.583c0.755-0.279,2.252,0.85,3.261,1.175  C72.403,44.636,71.336,42.645,70.077,42.583z M73.598,57.452c0.276,0.229,0.38,0.009,0.783,0c-0.069,0.105-0.136,0.212-0.13,0.392  c0.589-0.708,2.337-0.149,3.521-0.521c-0.475,0.438-1.196,0.629-1.826,0.912c0.739,0.366,1.572-0.919,2.349-0.521  c-1.242,1.103-3.271,0.63-5.218,1.043c0.838,0.435-0.237,0.317-0.651,0.392c-0.318-0.341,0.408-0.112,0.521-0.261  c-1.391,0.042-1.82-0.875-2.738-1.305c0.063-0.181,1.177-0.316,1.043,0.131c0.104-0.015,0.396-0.431,0.131-0.392  c1.661-0.829,4.712-1.969,6.13-0.262C76.559,57.537,75.043,57.129,73.598,57.452z M70.338,40.627  c0.681-0.333,3.368-0.205,3.391,1.566c0.632,0.126-0.049-0.729,0.262-0.653c0.179,0.561,1.189,0.405,2.086,1.043  c-0.068,0.672-0.491,0.987-0.651,1.565c-0.609-0.521-1.546-0.715-1.565-1.825C72.693,42.751,71.713,40.847,70.338,40.627z   M70.729,56.539c-0.007-0.485,0.579-0.376,1.043-0.391c-0.825-0.533,1.054-1.248,1.043-2.218c0.132,0.102,0.485,0.626,0.653,0.261  c0.343,0.653,0.035,1.771-0.914,1.566c-0.061,0.277,0.187,0.247,0.391,0.26C72.319,56.699,71.523,56.354,70.729,56.539z   M70.989,38.541c0.24-0.609,0.779-0.782,1.044-0.131C71.937,38.704,71.301,38.461,70.989,38.541z M77.12,36.845  c-0.286,0.272,0.114,0.422-0.13,0.652c-1.655-0.649-2.833-1.776-4.826-2.087c0.613-0.21,0.149-0.342-0.131-0.651  C73.929,35.005,75.572,35.988,77.12,36.845z M72.033,34.367c-0.214-0.438-0.269-1.035-0.652-1.305  c1.826-0.172,3.676,0.758,5.348,1.174c0.232,0.714,0.562,1.303,0.392,2.087C75.445,35.999,73.813,34.72,72.033,34.367z   M72.033,45.845c0.508-0.03,0.676,0.28,1.043,0.391C72.757,46.859,71.639,46.506,72.033,45.845z M76.859,38.541  c-0.119,0.439-0.292,0.015-0.521,0.261c0.345,0.305,0.596,0.315,0.391,0.912c-0.762,0.02-1.839-0.182-2.738-0.391  c0-0.175,0-0.349,0-0.521c1.041-0.042,1.765,0.234,2.217,0.781c0.111-0.519-0.806-0.353-0.392-0.781  c-0.234,0.017-0.274-0.159-0.521-0.131c-0.758-1.329-2.732-1.44-3.261-2.999C73.677,36.143,75.631,37.241,76.859,38.541z   M75.032,38.541c-0.974,0.73-1.6-1.022-2.217-0.261c-0.478-0.327-1.165-1.001-0.651-1.565  C73.398,37.045,74.106,37.901,75.032,38.541z M73.076,52.888c0.331-0.427-0.807-2.331-0.912-3.13  c0.993,0.224,2.117,0.316,2.739,0.912c-0.049,0.253-0.625,0.712,0.129,0.652c0.009,0.7-0.19,1.075-0.651,1.565  c1.028-0.105,0.941-1.459,0.913-2.479c0.942,0.234,2.366,0.675,3,0.783c0.326,0.055-0.126,0.372-0.392,0.261  c0.04,0.176,0.326,0.107,0.522,0.13c-1.198,1.063-3.128,1.395-4.956,1.826C73.338,53.236,73.253,53.016,73.076,52.888z   M72.425,59.67c1.29-0.466,3.438,0.005,5.347-0.261c-1.479,0.606-3.456,0.244-5.086,0.521C72.732,59.709,72.584,59.684,72.425,59.67  z M72.555,45.323c0.116-0.059,0.233-0.115,0.261-0.261c0.477,0.001,0.586,0.37,0.913,0.521  C73.554,46.25,72.611,45.878,72.555,45.323z M72.815,46.758c0.271-0.125,0.345,0.065,0.392-0.392  c0.642,0.255,1.615,0.783,1.696,1.174c0.615-0.26,0.771,0.608,1.042,0.26c0.059,0.152,0.126,0.521,0.653,0.522  c-0.393,0.342-0.808-0.403-1.305-0.391c0.423,0.536,1.885,0.92,2.478,1.695c-0.217,0-0.435,0-0.651,0  c0.313,0.253,0.845,0.285,1.044,0.652c0.024,0.366-0.563,0.376,0.13,0.391c-0.714,0.321-2.757-0.166-3.262-0.912  c0.306,0,0.609,0,0.913,0c-0.097-0.295-0.73-0.051-1.042-0.131c-0.575-1.254-1.441-1.707-1.958-2.608  C73.09,47.271,73.298,46.699,72.815,46.758z M74.12,60.19c-0.754,0.306,0.641,0.398,0.783,0.132c-0.058-0.194-0.167,0.051-0.393,0  c0.146-0.161,0.114-0.269-0.13-0.261c1.194,0.02,1.769-0.17,3.391-0.262c-0.778,1.004-1.131,2.434-2.739,2.609  c-0.146-0.854-1.563-0.436-1.563-1.435c-0.105,0.068-0.213,0.136-0.393,0.13c0.017-0.234-0.159-0.276-0.131-0.521  C73.511,61.115,72.865,59.914,74.12,60.19z M76.076,55.887c-0.889,0.199-1.788,0.386-2.869,0.392  C73.854,56.019,75.201,55.214,76.076,55.887z M73.469,61.756c0.517-0.165,1.063,0.761,1.825,0.783  c-0.226,0.383-0.612,0.605-1.174,0.651c-0.096-0.121-0.236-0.196-0.392-0.26C73.749,62.432,73.723,61.98,73.469,61.756z   M73.469,44.671c0.065-0.629,0.307-0.271,0-0.782c0.812,0.139,0.993,0.53,1.563,0.651c-0.099,0.516-0.702-0.201-0.391,0.522  C74.021,45.162,74.063,44.597,73.469,44.671z M74.903,47.019c0.156-0.171,0.05-0.205,0-0.392c-0.501,0.373-0.844-0.314-1.306-0.392  c1.505-0.602,2.399,1.343,3.522,1.958C76.12,48.293,76.235,46.953,74.903,47.019z M73.729,64.235  c2.161-0.553,3.162,1.185,4.565,1.825c0.044,0.764-0.417,1.055-1.044,1.435C76.098,66.387,75.002,65.223,73.729,64.235z   M73.729,55.626c0.17-0.569,0.233-0.655,0.131-1.304c0.634,0.148,0.879,0.687,1.435,0.913  C74.979,55.574,74.417,55.663,73.729,55.626z M73.729,40.105c0.853-0.155,1.915,0.605,2.479,1.174  C75.234,41.034,74.62,40.432,73.729,40.105z M73.859,53.8c0.521-0.249,2.079-0.998,2.348-0.261c0.383-0.747,1.471-0.791,2.348-1.043  c0.299,0.44-0.022,1.501,0.261,1.956C76.706,55.382,75.291,55.265,73.859,53.8z M73.859,39.714c0.951-0.233,1.519,0.281,2.608,0.392  c0.012,0.488,0.146,0.371,0,0.782C75.607,40.487,74.737,40.097,73.859,39.714z M74.511,59.148c1.096-0.514,2.773-0.445,3.914-0.914  c-0.163,0.316-0.323,0.634-0.392,1.044C76.893,59.2,75.438,59.438,74.511,59.148z M75.686,63.322  c-0.097-0.122-0.237-0.198-0.392-0.262c0.446-0.353,0.933,0.343,1.174,0.783c-0.54-0.023-1.14-0.085-1.695-0.393  c0.068-0.104,0.135-0.211,0.131-0.391C75.284,63.026,75.303,63.355,75.686,63.322z M75.294,45.583  c0.082-0.366,0.176-0.146,0.521-0.391c-0.186,0.446-0.108,0.762,0.392,0.521c-0.017,0.234,0.159,0.275,0.131,0.521  C75.8,46.208,75.739,45.703,75.294,45.583z M78.945,46.497c-0.236,0.501-0.962,0.516-1.695,0.521  c-0.145-0.334-0.243-0.713-0.521-0.913c0.021-0.153,0.237-0.11,0.392-0.13c-0.041-0.178-0.326-0.108-0.521-0.131  c-0.024-0.11,0.051-0.123,0.13-0.131c0-0.087,0-0.175,0-0.261C77.6,45.669,77.961,46.396,78.945,46.497z M75.555,44.409  c0.201-0.58,0.66-0.904,0.783-1.565c0.547,0.391,1.916,0.574,1.564,1.436c0.577-0.143,0.648,0.221,1.043,0.261  c-0.154,0.279-0.141,0.729-0.391,0.913c0.609-0.253,0.955,0.512,1.305,0.913C78.426,46.714,76.942,44.967,75.555,44.409z   M75.945,64.104c0.016-0.25,0.438,0.153,0.783,0c0.055,0.598,0.614,0.689,0.913,1.043C77.084,65.311,76.482,64.396,75.945,64.104z   M82.206,62.148c0.012,0.203,0.778-0.251,0.653,0.391c-1.653,0.369-5.567,2.233-6.914,0.261c0.312-0.948,1.237-1.285,1.696-2.087  c0.615,0.146,0.797-0.039,1.435,0.13c-0.239-0.282-0.769-0.273-1.305-0.26c0.302-1.612,3.376-1.054,3.522-0.131  c-0.568,0.495-1.216,0.102-2.087,0.261C80.844,60.802,82.542,60.907,82.206,62.148z M78.294,59.54  c0.377-0.319,1.102-0.29,1.695-0.392C79.761,59.615,78.885,59.436,78.294,59.54z M78.686,55.365  c-0.907-0.097-1.607,0.385-2.479,0.131c0.574-0.556,1.881-0.38,2.479-0.912C78.936,54.598,78.532,55.021,78.686,55.365z   M76.207,37.497c0.273,0.161,0.508,0.361,0.783,0.522C76.818,38.266,76.206,37.854,76.207,37.497z M76.729,41.54  c0.408,0.026,0.533,0.337,0.782,0.522C77.459,42.188,76.5,42.125,76.729,41.54z M76.99,56.278c0.293-0.532,1.057-0.595,1.825-0.652  c0,0.305,0,0.609,0,0.913c-0.044,0.188-0.836,0.274-0.521,0.392C77.918,57.17,77.396,56.442,76.99,56.278z M77.12,39.845  c-0.358-0.275,0.351-0.227,0-0.652c0.568-0.082,0.797,0.7,1.305,1.044C78.042,40.651,77.139,39.792,77.12,39.845z M78.686,43.497  c-0.702,0.049-0.722-0.583-1.175-0.783c0.297-0.371,0.504,0.444,1.044,0.261c0.113,0.364,0.313,0.645,0.391,1.044  C78.719,43.9,78.443,43.727,78.686,43.497z M79.989,49.235c-0.814-0.577-1.346-1.437-2.348-1.826  c0.374-0.408,1.273-0.291,1.825-0.521c-0.145,0.69,0.715-0.021,0.653,0.781c-0.106-0.069-0.212-0.136-0.392-0.13  C79.798,48.123,80.12,48.452,79.989,49.235z M77.771,47.932c0.851,0.105,0.955,0.957,1.695,1.174  C78.736,49.843,77.863,48.682,77.771,47.932z M78.815,58.626c0.131,0.181,0.216-0.056,0.392,0.262  c-0.111,0.193-0.328,0.279-0.652,0.261c-0.077-0.469,0.151-0.632,0.261-0.914c0.381,0.288,0.661,0.387,0.782,0.653  c-0.131,0-0.262,0-0.391,0C79.321,58.618,78.868,58.302,78.815,58.626z M78.555,42.193c0.236-0.354,0.632,0.226,0.781,0.39  C79.035,43.003,78.932,42.13,78.555,42.193z M80.511,53.539c-0.426,0.313-0.804,0.675-1.435,0.783  c0.114-1.181-0.66-2.23,0.391-2.608C80.021,52.117,79.977,53.117,80.511,53.539z M78.945,57.714  c-0.075-0.424,0.09-0.606,0.131-0.914c0.95-0.049,1.109-0.891,1.956-1.042C80.614,56.687,79.963,57.382,78.945,57.714z   M79.207,56.278c-0.282,0.022-0.06-0.462-0.131-0.652c0.081-0.181,0.502-0.019,0.521-0.261  C80.035,55.728,79.261,55.976,79.207,56.278z M79.076,55.235c0-0.217,0-0.436,0-0.651c0.373-0.194,0.863-0.268,1.174-0.522  c0.337,0.262-0.134,0.813-0.261,1.043C79.565,55.029,79.383,55.193,79.076,55.235z M79.076,49.758  c0.286-0.298,0.534-0.27,0.913-0.131c0.172,0.326-0.516,0.408-0.13,0.521C79.68,50.443,79.321,49.827,79.076,49.758z M79.336,44.148  c0.409-0.398,0.449,0.676,0.653,0.914C79.538,44.991,79.761,44.247,79.336,44.148z M79.598,56.278  c0.242-0.453,0.495-0.895,1.044-1.043C80.399,55.689,80.146,56.131,79.598,56.278z M79.729,63.713  c1.158-0.639,3.165-0.553,3.521-0.652C82.797,64.128,80.68,63.472,79.729,63.713z M80.642,44.019  c0.399,0.164,0.932,0.198,1.043,0.652c-0.308-0.003-0.383,0.225-0.782,0.131C80.799,44.558,80.685,44.323,80.642,44.019z   M81.032,50.801c0.297,0.207,0.784,0.687,0.521,1.043C81.131,51.745,80.988,51.367,81.032,50.801z M81.163,45.192  c0.571-0.686,1.872-0.547,2.348,0.391c-0.677,0.106-1.294,0.271-1.826,0.522C81.262,46.05,81.425,45.409,81.163,45.192z   M81.554,47.8c0.497-0.4,0.402,0.661,0.913,0.653C82.234,48.676,81.628,48.168,81.554,47.8z M85.598,53.539  c-0.355,0.327-0.853,0.312-1.565,0.522C83.252,52.759,84.867,53.087,85.598,53.539z M74.251,75.451  c0.704-0.714,2.992-1.144,2.608-2.087c-1.305,1.368-3.562,2.411-5.739,2.479c0.153,0.063,0.296,0.14,0.392,0.261  c-0.752,0.338-2.69,0.177-2.739,0.782c1.47-0.52,3.912-0.749,4.825-1.043c-0.152-0.021-0.369,0.022-0.391-0.131  C73.622,75.691,73.781,75.417,74.251,75.451z M29.905,53.409c-0.424,0.018-1.145-0.526-1.695-0.261  C28.94,53.197,29.535,53.69,29.905,53.409z M30.948,59.67c0.659,0.194,0.347-0.123,0.913-0.13c-0.569-0.335-1.25,0.185-1.695,0.39  c0.323-0.169,0.541,0.384,0.652,0c-0.102-0.027-0.258-0.003-0.262-0.13C30.918,59.919,31.431,60.011,30.948,59.67z M34.991,51.322  C36.579,51.902,35.991,51.142,34.991,51.322L34.991,51.322z M39.295,45.323c-0.552-0.128-1.753-0.214-2.348-0.131  C37.975,45.341,38.841,45.603,39.295,45.323z M52.729,38.671c0.399-0.201-0.565-0.114-0.782-0.13  c-1.227-0.122-2.651-0.738-3.782-0.521C49.255,38.208,51.049,38.656,52.729,38.671z M50.252,61.104  C50.703,61.759,51.718,61.002,50.252,61.104L50.252,61.104z M55.99,60.583c0.081,0.376-1.125,0.376-0.651,0  c-0.352,0.354-2.597-0.181-0.782,0.13c0.032,0.006,0.956,0.625,1.564,0.13C55.876,60.813,56.194,60.629,55.99,60.583z   M64.729,77.017c-3.232,0.414-7.904-0.307-10.564-0.261C57.575,77.059,61.381,77.66,64.729,77.017z M61.469,73.886  c-2.034-0.096-4.057-0.899-5.87-0.782C57.567,73.268,59.615,74.043,61.469,73.886z M56.643,27.584  c-0.281-0.031-0.812-0.478-0.913-0.26C55.852,27.518,56.38,27.964,56.643,27.584z M57.686,72.451c-0.259-0.308-0.259,0.012,0,0.131  c1.65,0.052,2.605,0.691,4.044,0.521C60.387,72.881,59.176,72.527,57.686,72.451z M63.947,74.407  c-0.809,0.023-1.692-0.564-2.349-0.261C62.367,74.103,63.685,74.806,63.947,74.407z M67.599,75.06  c-1.239,0.073-2.778-0.822-3.521-0.391C65.369,74.595,66.497,75.376,67.599,75.06z M68.382,76.626  c-0.136,0.43-1.372-0.242-1.306,0.391C67.457,76.855,68.371,77.103,68.382,76.626z M69.686,36.845  c0.281,0.266,0.956,1.147,1.304,0.522c-0.321-0.373-0.996-0.396-1.304-0.783c-0.326,0.066-0.536,0.247-0.782,0.392  C69.412,36.763,69.607,37.491,69.686,36.845z M72.425,70.365c0.875,0.342,2.066,0.367,3,0.651c0.189-0.071,0.675,0.153,0.651-0.13  c-1.288-0.06-2.388-0.309-3.391-0.652c-0.001-0.131,0.105-0.155,0.13-0.261c-0.428,0.333-0.731,0.025-0.912,0.652  C72.313,70.775,72.219,70.421,72.425,70.365z M80.642,76.104c-1.366-0.063-0.504,0.276,0.391,0.13  c0.697-0.112,2.327-0.783,1.827-1.304C82.498,75.699,81.543,75.875,80.642,76.104z M85.076,60.062  c-0.042,0.356-1.323,0.146-1.044,0.391C84.438,60.459,85.431,60.382,85.076,60.062z M87.815,58.104c-0.028,0.158-0.145,0.08-0.262,0  c-0.128,1.222-1.362,1.315-2.218,2.086C86.516,59.934,87.758,59.048,87.815,58.104z M91.728,60.322  c-1.186,1.467-3.281,2.022-5.217,2.738C88.333,62.749,90.843,62.005,91.728,60.322z M89.511,41.801  c0.118-2.223-0.517,0.666-0.261,0.652C89.23,42.13,89.316,41.912,89.511,41.801z M92.38,49.496c0.073-0.293,0.439-0.858,0-0.912  c-0.075,0.229,0.157,0.767-0.13,0.782C92.21,48.728,91.971,49.564,92.38,49.496z M57.816,60.713c-0.624,0.184-1.181-0.375-1.564,0  c0.157,0.027,0.079,0.145,0,0.262c0.868,0.101,1.059-0.073,1.695,0.261C57.977,60.988,57.801,60.947,57.816,60.713z"/></svg>